<svg fill="none" height="70" viewBox="0 0 189 70" width="189" xmlns="http://www.w3.org/2000/svg"><rect fill="#fff" height="69" rx="7.5" width="188" x=".5" y=".5"/><path d="m56 35c0 8.8361-7.1639 16-16 16s-16-7.1639-16-16 7.1639-16 16-16c8.8379 0 16 7.1639 16 16z" fill="#2081e2"/><path d="m31.8937 35.5376.069-.1085 4.1623-6.5113c.0608-.0953.2038-.0855.2498.0181.6954 1.5584 1.2954 3.4965 1.0143 4.7031-.12.4964-.4488 1.1687-.8187 1.7901-.0476.0904-.1002.1792-.1561.2647-.0263.0394-.0707.0624-.1184.0624h-4.2806c-.115 0-.1824-.1249-.1216-.2186z" fill="#fff"/><path d="m50.4462 36.7475v1.0307c0 .0592-.0362.1118-.0888.1348-.3222.1381-1.4252.6444-1.8838 1.2822-1.1705 1.629-2.0647 3.9584-4.0636 3.9584h-8.3393c-2.9556 0-5.3507-2.4033-5.3507-5.3688v-.0954c0-.0789.0641-.143.143-.143h4.6488c.092 0 .1594.0855.1512.1759-.0329.3025.0231.6115.1661.8926.2761.5606.8482.9107 1.4663.9107h2.3014v-1.7967h-2.2751c-.1167 0-.1858-.1348-.1184-.2302.0247-.0378.0526-.0772.0822-.1216.2154-.3057.5228-.7808.8285-1.3216.2088-.365.411-.7546.5737-1.1458.0329-.0707.0592-.1431.0855-.2137.0444-.125.0904-.2417.1233-.3584.0329-.0986.0592-.2022.0855-.2992.0772-.332.1101-.6838.1101-1.0487 0-.143-.0066-.2927-.0197-.4357-.0066-.1561-.0263-.3123-.0461-.4685-.0131-.1381-.0378-.2745-.0641-.4175-.0328-.2088-.0789-.4159-.1315-.6247l-.0181-.0789c-.0394-.143-.0723-.2794-.1183-.4224-.1299-.4488-.2794-.8861-.4373-1.2954-.0575-.1627-.1233-.3189-.189-.4751-.097-.235-.1956-.4487-.286-.6509-.0461-.0921-.0855-.1759-.125-.2614-.0444-.097-.0904-.194-.1364-.286-.0329-.0707-.0707-.1365-.097-.2022l-.2811-.5195c-.0395-.0707.0263-.1545.1036-.1331l1.7589.4767h.0049c.0033 0 .005.0016.0066.0016l.2318.0641.2548.0724.0937.0262v-1.0454c0-.5047.4044-.914.9041-.914.2499 0 .4767.1019.6395.2679.1627.1661.2646.3929.2646.6461v1.5518l.1874.0526c.0148.0049.0296.0115.0427.0213.0461.0346.1118.0855.1957.148.0657.0526.1364.1167.2219.1825.1693.1364.3715.3123.5934.5145.0592.0509.1167.1036.1693.1562.2861.2663.6066.5786.9124.9238.0854.097.1693.1956.2548.2992.0854.1052.1759.2087.2547.3123.1036.1381.2154.2811.3124.4307.046.0707.0986.143.143.2137.1249.189.2351.3847.3403.5803.0444.0904.0904.189.1299.286.1167.2614.2087.5277.2679.794.0181.0575.0312.12.0378.1759v.0131c.0197.0789.0263.1628.0329.2482.0263.2729.0131.5458-.046.8203-.0247.1168-.0576.2269-.097.3436-.0395.1118-.0789.2285-.1299.3386-.0986.2285-.2153.457-.3534.6707-.0444.0789-.097.1628-.1496.2417-.0576.0838-.1167.1627-.1693.24-.0724.0986-.1496.2022-.2285.2942-.0707.097-.143.194-.2219.2795-.1102.1298-.2154.2531-.3255.3715-.0658.0772-.1365.1562-.2088.2268-.0707.0789-.143.1496-.2088.2154-.1101.1101-.2022.1956-.2794.2663l-.1808.166c-.0263.023-.0609.0362-.097.0362h-1.4006v1.7967h1.7622c.3945 0 .7693-.1397 1.0718-.3962.1036-.0904.5556-.4816 1.0899-1.0717.018-.0198.0411-.0346.0674-.0411l4.8674-1.4072c.0904-.0263.1825.0428.1825.1381z" fill="#fff"/><path d="m72.9588 27h1.3168v-3.0682h1.7897c2.0242 0 3.0256-1.223 3.0256-2.8338 0-1.6065-.9929-2.8253-3.0213-2.8253h-3.1108zm1.3168-4.1847v-3.4133h1.6534c1.304 0 1.8366.7074 1.8366 1.696s-.5326 1.7173-1.8196 1.7173zm8.9318 4.3168c1.8452 0 3.0511-1.3509 3.0511-3.375 0-2.0369-1.2059-3.3878-3.0511-3.3878s-3.0512 1.3509-3.0512 3.3878c0 2.0241 1.206 3.375 3.0512 3.375zm.0042-1.0696c-1.2059 0-1.7684-1.0526-1.7684-2.3097 0-1.2528.5625-2.3181 1.7684-2.3181 1.1975 0 1.76 1.0653 1.76 2.3181 0 1.2571-.5625 2.3097-1.76 2.3097zm5.689.9375h1.2954l1.3296-4.7259h.098l1.3295 4.7259h1.2997l1.9219-6.5455h-1.3167l-1.2742 4.7856h-.0639l-1.2784-4.7856h-1.3168l-1.2869 4.8069h-.0639l-1.2827-4.8069h-1.3168zm11.1054.1321c1.427 0 2.437-.7031 2.727-1.7685l-1.206-.2173c-.23.6179-.784.9332-1.509.9332-1.0904 0-1.8234-.7073-1.8575-1.9687h4.6535v-.4517c0-2.3651-1.415-3.2898-2.8978-3.2898-1.8239 0-3.0256 1.3892-3.0256 3.4006 0 2.0327 1.1847 3.3622 3.1154 3.3622zm-1.8412-3.9759c.0511-.9289.7244-1.7343 1.7599-1.7343.9883 0 1.6363.7329 1.6403 1.7343zm6.0632 3.8438h1.274v-3.9972c0-.8565.66-1.4744 1.564-1.4744.264 0 .562.0469.664.0767v-1.2187c-.127-.0171-.379-.0299-.541-.0299-.767 0-1.423.4347-1.662 1.1378h-.068v-1.0398h-1.231zm7.192.1321c1.427 0 2.437-.7031 2.727-1.7685l-1.206-.2173c-.23.6179-.784.9332-1.508.9332-1.091 0-1.824-.7073-1.858-1.9687h4.653v-.4517c0-2.3651-1.415-3.2898-2.898-3.2898-1.824 0-3.025 1.3892-3.025 3.4006 0 2.0327 1.184 3.3622 3.115 3.3622zm-1.841-3.9759c.051-.9289.724-1.7343 1.76-1.7343.988 0 1.636.7329 1.64 1.7343zm8.513 3.9716c1.193 0 1.662-.7287 1.892-1.1463h.107v1.0185h1.244v-8.7273h-1.274v3.2429h-.077c-.23-.4048-.665-1.1463-1.884-1.1463-1.58 0-2.744 1.2486-2.744 3.3708 0 2.1179 1.146 3.3877 2.736 3.3877zm.281-1.0866c-1.138 0-1.73-1.0014-1.73-2.3139 0-1.2997.58-2.2756 1.73-2.2756 1.112 0 1.709.9077 1.709 2.2756 0 1.3764-.609 2.3139-1.709 2.3139zm8.058.9588h1.245v-1.0185h.106c.23.4176.699 1.1463 1.892 1.1463 1.586 0 2.736-1.2698 2.736-3.3877 0-2.1222-1.167-3.3708-2.748-3.3708-1.215 0-1.654.7415-1.88 1.1463h-.076v-3.2429h-1.275zm1.249-3.2727c0-1.3679.597-2.2756 1.709-2.2756 1.155 0 1.734.9759 1.734 2.2756 0 1.3125-.596 2.3139-1.734 2.3139-1.095 0-1.709-.9375-1.709-2.3139zm6.732 5.7272c1.052 0 1.717-.5497 2.097-1.5809l2.697-7.4191h-1.368l-1.658 5.0796h-.068l-1.657-5.0796h-1.364l2.395 6.6307-.158.4347c-.324.8693-.78.9417-1.479.75l-.306 1.044c.153.0682.485.1406.869.1406z" fill="#677184"/><path d="m83.5455 43.1818c0-3.7613-2.2955-5.9773-5.3466-5.9773-3.0569 0-5.3466 2.216-5.3466 5.9773 0 3.7557 2.2897 5.9773 5.3466 5.9773 3.0511 0 5.3466-2.2159 5.3466-5.9773zm-2.1194 0c0 2.6477-1.3295 4.0852-3.2272 4.0852-1.8921 0-3.2273-1.4375-3.2273-4.0852s1.3352-4.0852 3.2273-4.0852c1.8977 0 3.2272 1.4375 3.2272 4.0852zm4.0213 9.0909h2.0569v-4.6477h.0852c.3239.6364 1 1.5284 2.5 1.5284 2.0568 0 3.5966-1.6307 3.5966-4.5057 0-2.9091-1.5852-4.4886-3.6023-4.4886-1.5398 0-2.1818.9261-2.4943 1.5568h-.1193v-1.4432h-2.0228zm2.0171-7.6363c0-1.6932.7273-2.7898 2.0511-2.7898 1.3693 0 2.0739 1.1648 2.0739 2.7898 0 1.6363-.7159 2.8295-2.0739 2.8295-1.3125 0-2.0511-1.1364-2.0511-2.8295zm11.8466 4.5341c2.0339 0 3.4319-.9944 3.7959-2.5114l-1.921-.2159c-.278.7386-.96 1.125-1.8465 1.125-1.3296 0-2.2102-.875-2.2273-2.3693h6.0798v-.6307c0-3.0625-1.841-4.4091-3.9889-4.4091-2.5 0-4.1307 1.8352-4.1307 4.5284 0 2.7386 1.608 4.483 4.2387 4.483zm-2.1932-5.358c.0625-1.1136.8864-2.0511 2.1136-2.0511 1.1815 0 1.9775.8636 1.9885 2.0511zm9.8711.0739c0-1.2614.761-1.9887 1.846-1.9887 1.063 0 1.699.6989 1.699 1.8637v5.2386h2.057v-5.5568c.006-2.0909-1.188-3.2841-2.989-3.2841-1.307 0-2.204.625-2.602 1.5966h-.102v-1.483h-1.966v8.7273h2.057zm14.108-3.3239h2.028c-.04-1.9659-1.716-3.358-4.193-3.358-2.443 0-4.279 1.375-4.273 3.4319 0 1.6704 1.188 2.6306 3.102 3.125l1.324.3409c1.256.3182 2.085.7102 2.091 1.6136-.006.9943-.949 1.6591-2.324 1.6591-1.318 0-2.341-.5909-2.426-1.8125h-2.074c.086 2.3125 1.807 3.6136 4.517 3.6136 2.79 0 4.409-1.392 4.415-3.4431-.006-2.0171-1.67-2.9375-3.42-3.3523l-1.091-.2727c-.955-.2273-1.989-.6307-1.978-1.6023.006-.875.79-1.5171 2.108-1.5171 1.256 0 2.086.5853 2.194 1.5739zm7.839 8.608c2.034 0 3.432-.9944 3.796-2.5114l-1.921-.2159c-.278.7386-.96 1.125-1.847 1.125-1.329 0-2.21-.875-2.227-2.3693h6.08v-.6307c0-3.0625-1.841-4.4091-3.989-4.4091-2.5 0-4.131 1.8352-4.131 4.5284 0 2.7386 1.608 4.483 4.239 4.483zm-2.193-5.358c.062-1.1136.886-2.0511 2.114-2.0511 1.181 0 1.977.8636 1.988 2.0511zm10.325 5.3636c1.37 0 2.188-.642 2.563-1.375h.068v1.1989h1.977v-5.8409c0-2.3068-1.881-3-3.545-3-1.836 0-3.245.8182-3.699 2.4091l1.92.2727c.205-.5966.784-1.1079 1.79-1.1079.955 0 1.477.4886 1.477 1.3465v.0341c0 .5909-.619.6194-2.159.7841-1.693.1818-3.312.6875-3.312 2.6534 0 1.7159 1.255 2.625 2.92 2.625zm.534-1.5113c-.858 0-1.471-.3921-1.471-1.1478 0-.7897.687-1.1193 1.608-1.25.539-.0738 1.619-.2102 1.886-.4261v1.0284c0 .9716-.784 1.7955-2.023 1.7955zm7.409 1.4602c.671 0 1.245-.5568 1.25-1.25-.005-.6818-.579-1.2386-1.25-1.2386-.693 0-1.255.5568-1.25 1.2386-.005.6932.557 1.25 1.25 1.25zm5.573-11.7614h-2.108v11.6364h2.108zm12.68 5.8182c0-3.7613-2.295-5.9773-5.346-5.9773-3.057 0-5.347 2.216-5.347 5.9773 0 3.7557 2.29 5.9773 5.347 5.9773 3.051 0 5.346-2.2159 5.346-5.9773zm-2.119 0c0 2.6477-1.33 4.0852-3.227 4.0852-1.892 0-3.228-1.4375-3.228-4.0852s1.336-4.0852 3.228-4.0852c1.897 0 3.227 1.4375 3.227 4.0852z" fill="#121d33"/><rect height="69" rx="7.5" stroke="#f0f2f7" width="188" x=".5" y=".5"/></svg>