<svg fill="none" height="751" viewBox="0 0 1440 751" width="1440" xmlns="http://www.w3.org/2000/svg" xmlns:xlink="http://www.w3.org/1999/xlink"><linearGradient id="a" gradientUnits="userSpaceOnUse" x1="720" x2="720" y1="-2" y2="751"><stop offset="0" stop-color="#ded8fd"/><stop offset="1" stop-color="#ded8fd" stop-opacity="0"/></linearGradient><clipPath id="b"><path d="m-405 0h2250v751h-2250z"/></clipPath><g clip-path="url(#b)"><path clip-rule="evenodd" d="m1344.62-1.92385c.37-.15478.8-.06923 1.09.21677l123.29 123.29308v-122.585971c0-.404459.24-.769099.62-.923879.37-.15478.8-.06923 1.09.21677l124.29 124.29308 124.29-124.29309c.19-.18754.44-.29289.71-.29289s.52.10535.71.29289l125 125.00009c.39.39.39 1.024 0 1.414l-124.3 124.301c68.94.754 124.59 56.874 124.59 125.992 0 .265-.11.52-.29.707-.19.188-.44.293-.71.293h-122.59l123.3 123.293c.18.187.29.442.29.707v250c0 .552-.45 1-1 1h-250c-.55 0-1-.448-1-1v-122.586l-123.29 123.293c-.39.391-1.03.391-1.42 0l-125-125c-.39-.39-.39-1.024 0-1.414l123.32-123.315c-68.49-1.275-123.61-57.189-123.61-125.978h-123v121.586l86.68-86.681c.39-.391 1.03-.391 1.42 0 .39.39.39 1.023 0 1.414l-86.69 86.682 122.59-.001c.55 0 1 .448 1 1s-.45 1-1 1l-122.59.001 86.69 86.68c.39.391.39 1.024 0 1.415-.4.39-1.03.39-1.42 0l-86.68-86.681v122.585.004c69.13.537 125 56.742 125 125.996 0 .552-.45 1-1 1h-250c-.27 0-.52-.105-.71-.293-.18-.187-.29-.442-.29-.707 0-69.254 55.87-125.459 125-125.996 0-.001 0-.003 0-.004v-122.585l-86.68 86.681c-.39.39-1.02.39-1.42 0-.39-.391-.39-1.024 0-1.415l86.69-86.68-245.176-.001 123.296 123.293c.39.39.39 1.024 0 1.414l-125.003 125c-.39.391-1.024.391-1.414 0l-125-125c-.391-.39-.391-1.024 0-1.414l123.293-123.293h-121.586c0 64.185-47.992 117.161-110.049 125 62.057 7.839 110.049 60.815 110.049 125 0 .552-.448 1-1 1h-500c-.552 0-1-.448-1-1v-122.586l-123.293 123.293c-.39.391-1.024.391-1.414 0l-123.293-123.293v121.586c0 .552-.4477 1-1 1h-500c-.265 0-.52-.105-.707-.293-.188-.187-.293-.442-.293-.707 0-64.185 47.992-117.161 110.049-125-62.057-7.839-110.049-60.815-110.049-125 0-68.789 55.124-124.703 123.608-125.978l-123.315-123.315c-.391-.39-.391-1.024 0-1.414l124.293-124.293-124.293-124.292886c-.286-.285998-.372-.716114-.217-1.089794.155-.37367.52-.61731.924-.61731l750 .00003c.265 0 .52.10535.707.29289.188.18753.293.44189.293.707105 0 69.254265-55.872 125.458965-125 125.995965v.004 122.586l86.682-86.681c.39-.391 1.023-.391 1.414 0 .39.39.39 1.023 0 1.414l-86.682 86.681h246.172l-124.293-124.293c-.391-.39-.391-1.024 0-1.414l125-125.00009c.187-.18754.442-.29289.707-.29289s.52.10535.707.29289l123.315 123.31509c1.275-68.484 57.189-123.60797 125.978-123.60797 69.254.00001 125.459 55.87247 125.996 124.99997h121.59l-123.293-123.292886c-.286-.285998-.372-.716114-.217-1.089794.155-.37367.52-.61731.924-.61731l250 .00002c.4 0 .77.24364.92.61732.16.37367.07.803788-.21 1.089786l-123.296 123.292864h121.586c.54-69.1275 56.75-124.99997 126-124.99997 61.91.00001 113.4 44.65657 124 103.51697v-102.516971c0-.404459.24-.769099.62-.923879zm-.62 124.92385c-.54-68.0229-55.85-122.99996233-124-122.99996543s-123.46 54.97706543-124 122.99996543zm-250 2h-248v248h123.937.063.063 123.937zm3.41 248h245.18l-122.59-122.586zm124-124 122.59-122.586v122.586c0 .404.24.769.62.924.37.155.8.069 1.09-.217l123.29-123.293v122.586.004c-68 .529-123.18 54.927-124.96 122.626zm250 .008c63.55.695 115.81 48.438 123.59 110.041 7.78-61.603 60.04-109.346 123.59-110.041l-123.59-123.594zm122.18-125.008-122.59-122.58571v245.17171zm2.82 0 123.59 123.586 123.59-123.586-123.59-123.585846zm-2.41 251c0-68.483-55.52-124-124-124s-124 55.517-124 124 55.52 124 124 124 124-55.517 124-124zm2 1c-.54 68.33-55.46 123.709-123.61 124.978l121.61 121.608v-122.586c0-.265.11-.52.29-.707l123.3-123.293zm124 .414-122.59 122.586h245.18zm124 124.586h-248v123.992.016 123.992h248zm-250.41 124-123.59-123.586-123.59 123.586 123.59 123.586zm2.41-251h248c-.54-68.023-55.85-123-124-123s-123.46 54.977-124 123zm-127.41-250-122.59-122.58571v245.17171zm-248.59 123.586-122.59-122.586h245.18zm-124-121.172 122.59 122.586-122.59 122.586zm123 248.586h-226.517c58.547 10.545 103.037 61.532 103.517 123l121.59.001-86.69-86.682c-.39-.391-.39-1.024 0-1.414.39-.391 1.03-.391 1.42 0l86.68 86.681zm-125 123c-.54-68.002-55.82-122.966-123.938-123-.02 0-.041 0-.062 0s-.041 0-.062 0c-68.121.033-123.397 54.998-123.934 123h123.989.014zm-248-21.483c9.288-51.565 49.952-92.229 101.517-101.517h-101.517zm-2-330.034c-10.602 58.861-62.086 103.517-124 103.517s-113.398-44.656-124-103.517v103.508.017 124.983.017 102.509c10.602-58.86 62.086-103.517 124-103.517s113.398 44.657 124 103.517zm0 353.517c0-68.483-55.517-124-124-124s-124 55.517-124 124 55.517 124 124 124 124-55.517 124-124zm-139.951 125c-54.638-6.902-98.372-48.793-108.049-102.517v205.034c9.677-53.724 53.411-95.615 108.049-102.517zm-110.049 124v-248h-123.99c-.007 0-.013 0-.02 0h-123.99v123.994.012 123.994zm-250-126.414v-121.586h-121.586zm-124.007-123.586h.014 123.989c-.537-68.023-55.846-123-123.996-123s-123.4588 54.977-123.9961 123zm-125.9774-1c1.0633-68.333 56.5234-123.464 124.9844-123.996v-121.589l-86.681 86.681c-.39.39-1.024.39-1.414 0-.391-.391-.391-1.024 0-1.415l86.681-86.681h-122.586c-.5523 0-1-.448-1-1h-121.5858l123.2929 123.293c.3905.39.3905 1.024 0 1.414l-123.2929 123.293zm-124.0072 2c-.0058 0-.0115 0-.0173 0h-123.9911v248h248v-248zm125.9916 1h121.586l-121.586 121.586zm.4142 124 123.5858 123.586 123.586-123.586-123.586-123.586zm-252.4142 101.517v-205.034c-9.677 53.724-53.412 95.615-108.049 102.517 54.637 6.902 98.372 48.793 108.049 102.517zm3.414-228.517h121.586v-121.586zm123.586-124.005v.005.006 122.58l122.5858-122.586-122.5858-122.586zm-2-123.995v121.586l-121.586-121.586zm.9937-2h.0122 123.9941v-247.99997735l-248 .00000644v247.99997091zm-125.9937-1.414v-245.17176l-122.586 122.58576zm-124-121.172-123.586 123.586 123.586 123.586 123.586-123.586zm124 126v225.103c-10.465-58.101-60.764-102.362-121.608-103.495zm2 0v245.172l122.5858-122.586zm-126-128.828 122.586-122.58597115-245.172-.00002122zm376-101.1034v227.5174h121.586l-86.682-86.681c-.39-.391-.39-1.024 0-1.414.391-.391 1.024-.391 1.414 0l86.682 86.681v-122.586c0-.001 0-.003 0-.004-61.468-.478-112.455-44.9697-123-103.5134zm125 230.9324v121.589c68.794.535 124.461 56.202 124.996 124.996h121.59l-123.293-123.293c-.286-.286-.372-.716-.217-1.09.155-.373.52-.617.924-.617h122.586l-123-123h-122.172l86.681 86.681c.391.391.391 1.024 0 1.415-.39.39-1.024.39-1.414 0zm126.414-1.415 122.586 122.586 122.586-122.586zm246.586 1.414-121.586 121.586h121.586zm-1.414 123.586h-245.172l122.586 122.586zm-120.172 123h121.586v-121.586zm121.586-250v-122.586l-122.586 122.586zm2-125c0 68.483 55.517 124 124 124s124-55.517 124-124c0-68.4833-55.517-123.99996233-124-123.99996543s-124 55.51666543-124 123.99996543zm-2.414 0-123.586 123.586-123.586-123.586 123.586-123.585785zm-497.5821-123.99997735c.5373 68.02297735 55.8461 122.99997735 123.9961 122.99997735s123.459-54.977 123.996-122.99996495zm-252.0039 498.99997735c0 68.483-55.517 124-124 124s-124-55.517-124-124 55.517-124 124-124 124 55.517 124 124zm-.004 249c-.537-68.023-55.846-123-123.996-123s-123.459 54.977-123.996 123zm752.008 1c.537-68.023 55.846-123 123.996-123s123.459 54.977 123.996 123zm373.996-626.414 122.59-122.58597115-245.176-.00002122zm0 377.828-123.586 123.586 123.586 123.586 123.59-123.586zm-1073.917-449.3306c0-.5523.448-1 1-1h145.8335c.5523 0 1 .4477 1 1v145.8336c0 .552-.4477 1-1 1h-145.8335c-.552 0-1-.448-1-1zm2 1v143.8336h143.8335v-143.8336zm998 123.9996c0-.552.448-1 1-1h145.837c.55 0 1 .448 1 1v145.834c0 .552-.45 1-1 1h-145.837c-.552 0-1-.448-1-1zm2 1v143.834h143.837v-143.834zm-1002 374c0-.552.448-1 1-1h145.8335c.5523 0 1 .448 1 1v145.834c0 .552-.4477 1-1 1h-145.8335c-.265 0-.519-.106-.707-.293-.187-.188-.293-.442-.293-.707zm2 1v143.834h143.8335v-143.834zm498 0c0-.552.448-1 1-1h145.834c.552 0 1 .448 1 1v145.834c0 .552-.448 1-1 1h-145.834c-.265 0-.519-.106-.707-.293-.187-.188-.293-.442-.293-.707zm2 1v143.834h143.834v-143.834zm1247.997-1c0-.552.45-1 1-1h145.84c.55 0 1 .448 1 1v145.834c0 .552-.45 1-1 1h-145.84c-.26 0-.52-.106-.7-.293-.19-.188-.3-.442-.3-.707zm2 1v143.834h143.84v-143.834zm-552.08 195.917h248c-.54-68.023-55.85-123-124-123s-123.46 54.977-124 123z" fill="url(#a)" fill-rule="evenodd"/></g></svg>