<svg width="1440" height="708" viewBox="0 0 1440 708" fill="none" xmlns="http://www.w3.org/2000/svg"><g clip-path="url(#clip0)"><g filter="url(#filter0_f)"><ellipse cx="898.624" cy="688.788" rx="592.5" ry="327" transform="rotate(-6.48121 898.624 688.788)" fill="#7349F2"/></g><g filter="url(#filter1_f)"><path d="M975.151 644.548C887.308 612.202 830.126 624.331 736.559 621.516C555.945 616.082 456.082 682.485 276.073 666.739C-91.2228 634.61 905.785 141.715 1178.62 389.702C1350.14 545.594 1526.82 1088.9 1332.23 962.979C1254.52 912.691 1243.83 847.495 1174.98 785.637C1103.91 721.798 1064.79 677.558 975.151 644.548Z" fill="url(#paint0_linear)"/></g><g filter="url(#filter2_f)"><path d="M788.056 539.946C646.249 549.276 553.697 601.62 463.675 723.407C281.306 970.124 1346.81 1048.5 1198.42 777.451C1104.86 606.552 969.188 528.029 788.056 539.946Z" fill="#0C6CF2"/></g><g filter="url(#filter3_f)"><path d="M1374.26 917.119C1479.17 862.744 1532.22 792.021 1560.2 669.245C1616.88 420.522 779.113 715.986 982.495 872.99C1110.73 971.983 1240.25 986.573 1374.26 917.119Z" fill="#17CF73"/></g></g><defs><filter id="filter0_f" x="-27" y="-3" width="1851.25" height="1383.58" filterUnits="userSpaceOnUse" color-interpolation-filters="sRGB"><feFlood flood-opacity="0" result="BackgroundImageFix"/><feBlend mode="normal" in="SourceGraphic" in2="BackgroundImageFix" result="shape"/><feGaussianBlur stdDeviation="150" result="effect1_foregroundBlur"/></filter><filter id="filter1_f" x="-89" y="-41" width="1781.45" height="1546.45" filterUnits="userSpaceOnUse" color-interpolation-filters="sRGB"><feFlood flood-opacity="0" result="BackgroundImageFix"/><feBlend mode="normal" in="SourceGraphic" in2="BackgroundImageFix" result="shape"/><feGaussianBlur stdDeviation="125" result="effect1_foregroundBlur"/></filter><filter id="filter2_f" x="138" y="227.594" width="1382.78" height="1029.6" filterUnits="userSpaceOnUse" color-interpolation-filters="sRGB"><feFlood flood-opacity="0" result="BackgroundImageFix"/><feBlend mode="normal" in="SourceGraphic" in2="BackgroundImageFix" result="shape"/><feGaussianBlur stdDeviation="150" result="effect1_foregroundBlur"/></filter><filter id="filter3_f" x="750.59" y="373.312" width="1012.36" height="786.83" filterUnits="userSpaceOnUse" color-interpolation-filters="sRGB"><feFlood flood-opacity="0" result="BackgroundImageFix"/><feBlend mode="normal" in="SourceGraphic" in2="BackgroundImageFix" result="shape"/><feGaussianBlur stdDeviation="100" result="effect1_foregroundBlur"/></filter><linearGradient id="paint0_linear" x1="596.472" y1="635.758" x2="1199" y2="678.26" gradientUnits="userSpaceOnUse"><stop stop-color="#FF0095"/><stop offset="1" stop-color="#FFCDFF"/></linearGradient><clipPath id="clip0"><rect width="1440" height="708" fill="#fff"/></clipPath></defs></svg>