<svg display="block" height="400" width="400" xmlns="http://www.w3.org/2000/svg"><rect fill="none" height="100%" width="100%"/><path d="m196.423 21.53c-.811 1.941-25.318 43.092-54.46 91.447-29.142 48.354-53.228 88.551-53.526 89.327-.387 1.009 15.445 10.858 55.514 34.534l56.057 33.122 56.041-33.14c40.261-23.809 55.888-33.541 55.497-34.561-2.025-5.278-111.001-184.259-112.19-184.259-.802 0-2.122 1.588-2.933 3.53m-107.853 204.595c2.16 3.693 110.975 156.795 111.43 156.781.752-.023 112.004-157.235 111.574-157.666-.406-.405-104.395 60.841-108.733 64.04l-2.659 1.962-53.841-31.788c-29.613-17.483-54.935-32.493-56.271-33.354-2.215-1.427-2.348-1.425-1.5.025" fill="#5322e5" fill-rule="evenodd"/></svg>