<svg fill="none" height="20" viewBox="0 0 20 20" width="20" xmlns="http://www.w3.org/2000/svg"><path d="m.75 8.5c0-.9665.7835-1.75 1.75-1.75s1.75.7835 1.75 1.75v9c0 .9665-.7835 1.75-1.75 1.75s-1.75-.7835-1.75-1.75zm7.66667-6.08333c0-.92048.74619-1.66667 1.66663-1.66667.9205 0 1.6667.74619 1.6667 1.66667v15.16663c0 .9205-.7462 1.6667-1.6667 1.6667-.92044 0-1.66663-.7462-1.66663-1.6667zm7.33333 11.51193c0-.9665.7835-1.75 1.75-1.75s1.75.7835 1.75 1.75v3.5714c0 .9665-.7835 1.75-1.75 1.75s-1.75-.7835-1.75-1.75z" stroke="#fff" stroke-width="1.5"/></svg>