<svg fill="none" height="20" viewBox="0 0 20 20" width="20" xmlns="http://www.w3.org/2000/svg"><path d="m3.68421 11.0526c-.57895 0-1.05263.4737-1.05263 1.0527 0 .5789.47368 1.0526 1.05263 1.0526s1.05263-.4737 1.05263-1.0526c0-.579-.47368-1.0527-1.05263-1.0527zm0 4.2106c-.57895 0-1.05263.4736-1.05263 1.0526 0 .5789.47368 1.0526 1.05263 1.0526s1.05263-.4737 1.05263-1.0526c0-.579-.47368-1.0526-1.05263-1.0526zm0-8.42109c-.57895 0-1.05263.47368-1.05263 1.05263 0 .57894.47368 1.05263 1.05263 1.05263s1.05263-.47369 1.05263-1.05263c0-.57895-.47368-1.05263-1.05263-1.05263zm-3.157894.52631c-.294737 0-.526316.23158-.526316.52632 0 .29473.231579.52631.526316.52631s.526314-.23158.526314-.52631c0-.29474-.231577-.52632-.526314-.52632zm3.157894-4.73684c-.57895 0-1.05263.47368-1.05263 1.05263s.47368 1.05263 1.05263 1.05263 1.05263-.47368 1.05263-1.05263-.47368-1.05263-1.05263-1.05263zm15.78949 5.78947c.2947 0 .5263-.23158.5263-.52631 0-.29474-.2316-.52632-.5263-.52632-.2948 0-.5263.23158-.5263.52632 0 .29473.2315.52631.5263.52631zm-7.3684-3.68421c.5789 0 1.0526-.47368 1.0526-1.05263s-.4737-1.05263-1.0526-1.05263c-.579 0-1.0527.47368-1.0527 1.05263s.4737 1.05263 1.0527 1.05263zm0-3.68421c.2947 0 .5263-.231577.5263-.526314s-.2316-.526316-.5263-.526316c-.2948 0-.5264.231579-.5264.526316s.2316.526314.5264.526314zm-11.578984 10.52627c-.294737 0-.526316.2316-.526316.5264 0 .2947.231579.5263.526316.5263s.526314-.2316.526314-.5263c0-.2948-.231577-.5264-.526314-.5264zm7.368424 7.3685c-.29474 0-.52632.2315-.52632.5263 0 .2947.23158.5263.52632.5263.29473 0 .52631-.2316.52631-.5263 0-.2948-.23158-.5263-.52631-.5263zm0-17.89477c.29473 0 .52631-.231577.52631-.526314s-.23158-.526316-.52631-.526316c-.29474 0-.52632.231579-.52632.526316s.23158.526314.52632.526314zm0 3.68421c.57894 0 1.05263-.47368 1.05263-1.05263s-.47369-1.05263-1.05263-1.05263c-.57895 0-1.05263.47368-1.05263 1.05263s.47368 1.05263 1.05263 1.05263zm0 5.78946c-.87369 0-1.57895.7053-1.57895 1.579 0 .8736.70526 1.5789 1.57895 1.5789.87368 0 1.57894-.7053 1.57894-1.5789 0-.8737-.70526-1.579-1.57894-1.579zm8.42106.5263c-.579 0-1.0526.4737-1.0526 1.0527 0 .5789.4736 1.0526 1.0526 1.0526.5789 0 1.0526-.4737 1.0526-1.0526 0-.579-.4737-1.0527-1.0526-1.0527zm0 4.2106c-.579 0-1.0526.4736-1.0526 1.0526 0 .5789.4736 1.0526 1.0526 1.0526.5789 0 1.0526-.4737 1.0526-1.0526 0-.579-.4737-1.0526-1.0526-1.0526zm0-8.42109c-.579 0-1.0526.47368-1.0526 1.05263 0 .57894.4736 1.05263 1.0526 1.05263.5789 0 1.0526-.47369 1.0526-1.05263 0-.57895-.4737-1.05263-1.0526-1.05263zm0-4.21053c-.579 0-1.0526.47368-1.0526 1.05263s.4736 1.05263 1.0526 1.05263c.5789 0 1.0526-.47368 1.0526-1.05263s-.4737-1.05263-1.0526-1.05263zm3.1579 8.94732c-.2948 0-.5263.2316-.5263.5264 0 .2947.2315.5263.5263.5263.2947 0 .5263-.2316.5263-.5263 0-.2948-.2316-.5264-.5263-.5264zm-7.3684 3.6843c-.579 0-1.0527.4736-1.0527 1.0526 0 .5789.4737 1.0526 1.0527 1.0526.5789 0 1.0526-.4737 1.0526-1.0526 0-.579-.4737-1.0526-1.0526-1.0526zm0 3.6842c-.2948 0-.5264.2315-.5264.5263 0 .2947.2316.5263.5264.5263.2947 0 .5263-.2316.5263-.5263 0-.2948-.2316-.5263-.5263-.5263zm-4.21056-12.63161c-.87369 0-1.57895.70526-1.57895 1.57895 0 .87368.70526 1.57894 1.57895 1.57894.87368 0 1.57894-.70526 1.57894-1.57894 0-.87369-.70526-1.57895-1.57894-1.57895zm0 8.94741c-.57895 0-1.05263.4736-1.05263 1.0526 0 .5789.47368 1.0526 1.05263 1.0526.57894 0 1.05263-.4737 1.05263-1.0526 0-.579-.47369-1.0526-1.05263-1.0526zm4.21056-4.7369c-.8737 0-1.579.7053-1.579 1.579 0 .8736.7053 1.5789 1.579 1.5789.8736 0 1.5789-.7053 1.5789-1.5789 0-.8737-.7053-1.579-1.5789-1.579zm0-4.21051c-.8737 0-1.579.70526-1.579 1.57895 0 .87368.7053 1.57894 1.579 1.57894.8736 0 1.5789-.70526 1.5789-1.57894 0-.87369-.7053-1.57895-1.5789-1.57895z" fill="#fff"/></svg>