<svg fill="none" height="20" viewBox="0 0 20 20" width="20" xmlns="http://www.w3.org/2000/svg" xmlns:xlink="http://www.w3.org/1999/xlink"><mask id="a" fill="#fff"><path d="m.459801 1.13274c-.259824.30434-.242759.75709.039238 1.04101l7.073421 7.12152c.38734.38997.38734 1.01943.00001 1.40943l-7.07343 7.1216c-.281993.2839-.299058.7366-.039237 1.041.291199.341.811337.3615 1.128427.0443l8.20284-8.2046c.39043-.3905.39043-1.02355 0-1.41406l-8.20284-8.20458c-.31709-.317165-.837228-.296705-1.128429.04438zm10.254699 18.85186c-.548 0-.99227-.4442-.99227-.9923 0-.548.44427-.9923.99227-.9923h8.2932c.548 0 .9923.4443.9923.9923 0 .5481-.4443.9923-.9923.9923z" fill="#fff"/></mask><path d="m1.58823 1.08836-1.414363 1.41406zm8.20284 9.61864-1.41437-1.41406zm0-1.41406 1.41433-1.41406zm-8.20284 9.61866-1.414368-1.414zm-1.08919-1.0853 1.419 1.4094zm7.07342-8.53103-1.41899 1.40943zm.00001 1.40943-1.41901-1.40943zm-8.492428-7.12154 7.073428 7.12154 2.83799-2.81885-7.07342-7.121515zm7.073418 5.71211-7.073423 7.12163 2.838003 2.8188 7.07343-7.1216zm-3.15086 11.03043 8.2028-8.2046-2.8287-2.82816-8.202838 8.20466zm8.2028-12.44682-8.2028-8.204586-2.828733 2.828126 8.202843 8.20458zm-.4909 12.12112h8.2932v-4h-8.2932zm8.2932-2.0154h-8.2932v4h8.2932zm-1.0077 1.0077c0-.5565.4512-1.0077 1.0077-1.0077v4c1.6526 0 2.9923-1.3397 2.9923-2.9923zm1.0077 1.0077c-.5565 0-1.0077-.4512-1.0077-1.0077h4c0-1.6526-1.3397-2.9923-2.9923-2.9923zm-7.2855-1.0077c0 .5565-.4511 1.0077-1.0077 1.0077v-4c-1.65257 0-2.99227 1.3397-2.99227 2.9923zm-3.99997 0c0 1.6526 1.3397 2.9923 2.99227 2.9923v-4c.5566 0 1.0077.4512 1.0077 1.0077zm-4.71963-19.318006c-1.14197-1.142204-3.0151528-1.068524-4.06387.159854l3.04214 2.597192c-.46631.5462-1.299227.57896-1.807003.07108zm8.2028 12.446806c1.1713-1.1716 1.1713-3.0707 0-4.24222l-2.82869 2.82812c-.39043-.3905-.39043-1.02355-.00001-1.41406zm-12.26667 8.0447c1.0487137 1.2284 2.92191 1.3021 4.06387.1599l-2.828738-2.8281c.507778-.5079 1.340698-.4751 1.807008.0711zm.141307-3.7489c-1.015557 1.0224-1.077017 2.6529-.141307 3.7489l3.04214-2.5971c.41607.4873.38874 1.2123-.06283 1.667zm7.073433-5.7122c-.38734-.39-.38734-1.01946-.00001-1.40943l2.83801 2.81883c1.16203-1.1699 1.16203-3.05834-.00001-4.22825zm-4.23543-9.940365c.45157.454645.4789 1.179655.06283 1.667005l-3.04214-2.597192c-.93571 1.09602-.87426 2.726542.141312 3.749012z" fill="#000" mask="url(#a)"/></svg>