<svg fill="none" height="22" viewBox="0 0 22 22" width="22" xmlns="http://www.w3.org/2000/svg"><g stroke="#0c6cf2" stroke-width="2"><g stroke-linecap="round"><path d="m18.8571 1h-15.71424c-1.18347 0-2.14286.95939-2.14286 2.14286v15.71424c0 1.1835.95939 2.1429 2.14286 2.1429h15.71424c1.1835 0 2.1429-.9594 2.1429-2.1429v-15.71424c0-1.18347-.9594-2.14286-2.1429-2.14286z" fill="#fff" stroke-linejoin="round"/><path d="m18.8571 4.5714 2.1429-.71428v14.14288c0 1.6568-1.3431 3-3 3h-14c-1.65685 0-3-1.3432-3-3v-.5715l2.14286-5 2.85714.7143 5-5.71426 5-.71428z" fill="#0c6cf2" fill-opacity=".36" stroke-linejoin="round"/><path d="m11 11v10"/><path d="m6 15.2857v5.7143"/><path d="m11 1v2.85714"/><path d="m16 9.57141v11.42859"/></g><path d="m11 8.85714c.789 0 1.4286-.63959 1.4286-1.42857s-.6396-1.42857-1.4286-1.42857-1.42859.63959-1.42859 1.42857.63959 1.42857 1.42859 1.42857z" fill="#fff"/></g></svg>