<svg fill="none" height="20" viewBox="0 0 18 20" width="18" xmlns="http://www.w3.org/2000/svg"><path d="m5.25 18.9601c0 .1699-.13312.2899-.27564.2899h-3.94872c-.142519 0-.27564-.12-.27564-.2899v-11.12331c0-.41441.188813-.80235.50632-1.05273l7.5784-5.976093c.09802-.077289.23254-.07729.33056.000001l7.57842 5.976092c.3175.25038.5063.63832.5063 1.05273v11.12331c0 .1699-.1331.2899-.2756.2899h-3.9488c-.1425 0-.2756-.12-.2756-.2899v-5.0174c0-.9787-.7853-1.7898-1.7756-1.7898h-3.94876c-.99037 0-1.77564.8111-1.77564 1.7898z" fill="#000" stroke="#000" stroke-width="1.5"/></svg>