<svg fill="none" height="20" viewBox="0 0 20 20" width="20" xmlns="http://www.w3.org/2000/svg"><g fill="#fff"><path d="m9.99543 1.80194c2.67047 0 2.98397.01191 4.03947.05954.9761.04366 1.5039.20639 1.857.34531.4682.18257.8015.3969 1.1507.74618.3492.34927.5675.68267.746 1.15102.1349.35324.3016.88113.3452 1.85751.0477 1.05577.0596 1.36932.0596 4.0405 0 2.6712-.0119 2.9847-.0596 4.0405-.0436.9764-.2063 1.5042-.3452 1.8575-.1825.4683-.3968.8017-.746 1.151s-.6825.5676-1.1507.7462c-.3531.1349-.8809.3016-1.857.3453-1.0555.0476-1.369.0595-4.03947.0595s-2.98394-.0119-4.03944-.0595c-.97613-.0437-1.50388-.2064-1.85703-.3453-.46822-.1826-.80154-.3969-1.15072-.7462-.34919-.3493-.56743-.6827-.74599-1.151-.13491-.3533-.30157-.8811-.34522-1.8575-.04761-1.0558-.05952-1.3693-.05952-4.0405 0-2.67118.01191-2.98473.05952-4.0405.04365-.97638.20634-1.50427.34522-1.85751.18253-.46835.3968-.80175.74599-1.15102.34918-.34928.6825-.56758 1.15072-.74618.35315-.13495.8809-.30165 1.85703-.34531 1.0555-.0516 1.37294-.05954 4.03944-.05954zm0-1.80194c-2.71412 0-3.05537.0119071-4.12277.0595356-1.06342.0476284-1.78957.2182974-2.42445.4643774-.65869.254019-1.21422.599327-1.76974 1.154987-.55552.55567-.896771 1.11531-1.154692 1.7702-.246017.63504-.416642 1.36138-.4642577 2.42905-.0476163 1.0637-.0595203 1.40504-.0595203 4.11987 0 2.71478.011904 3.05618.0595203 4.12378.0476157 1.0638.2182407 1.7901.4642577 2.4291.253953.6589.599172 1.2145 1.154692 1.7702s1.11501.897 1.76974 1.155c.63488.2461 1.36103.4167 2.42842.4644 1.0674.0476 1.40468.0595 4.12277.0595 2.7181 0 3.0554-.0119 4.1228-.0595 1.0634-.0477 1.7895-.2183 2.4284-.4644.6587-.254 1.2142-.5993 1.7697-1.155.5556-.5557.8968-1.1153 1.1547-1.7702.246-.635.4167-1.3614.4643-2.4291.0476-1.0676.0595-1.405.0595-4.12378 0-2.7188-.0119-3.05617-.0595-4.12384-.0476-1.0637-.2183-1.79004-.4643-2.42905-.2539-.65886-.5991-1.21453-1.1547-1.77019-.5555-.55567-1.115-.897008-1.7697-1.154996-.6349-.24608-1.361-.416749-2.4284-.4643774-1.0714-.0436595-1.4126-.0555666-4.12677-.0555666z"/><path d="m9.99533 4.86603c-2.83316 0-5.13461 2.29807-5.13461 5.13597 0 2.8378 2.29748 5.1359 5.13461 5.1359 2.83717 0 5.13457-2.2981 5.13457-5.1359 0-2.8379-2.2974-5.13597-5.13457-5.13597zm0 8.46597c-1.84116 0-3.33313-1.4924-3.33313-3.334 0-1.84164 1.49197-3.334 3.33313-3.334 1.84117 0 3.33317 1.49236 3.33317 3.334 0 1.8416-1.492 3.334-3.33317 3.334z"/><path d="m15.3325 5.85768c.6618 0 1.1983-.53652 1.1983-1.19834 0-.66183-.5365-1.19834-1.1983-1.19834s-1.1983.53651-1.1983 1.19834c0 .66182.5365 1.19834 1.1983 1.19834z"/></g></svg>