<svg fill="none"  aria-labelledby="search" height="473" viewBox="0 0 473 473" width="473" xmlns="http://www.w3.org/2000/svg"><path d="m318.512 278.249c20.831-28.919 33.06-64.343 33.06-102.463 0-97.0879-78.698-175.786-175.786-175.786-97.0879 0-175.786 78.6981-175.786 175.786 0 97.088 78.6981 175.786 175.786 175.786 38.11 0 73.526-12.223 102.441-33.044l153.063 153.058c.781.781 2.048.781 2.829 0l37.467-37.467c.781-.781.781-2.048 0-2.829zm-142.726 19.235c-67.339 0-121.6979-54.358-121.6979-121.698 0-67.339 54.3589-121.6979 121.6979-121.6979 67.34 0 121.698 54.3589 121.698 121.6979 0 67.34-54.358 121.698-121.698 121.698z" fill="#222"/></svg>