<svg fill="none" height="12" viewBox="0 0 20 12" width="20" xmlns="http://www.w3.org/2000/svg"><g fill="#fff"><path d="m11.2813 6.00011c0 3.0682-2.52548 5.55549-5.64058 5.55549s-5.64072-2.48729-5.64072-5.55549c0-3.06821 2.52543-5.555652 5.64072-5.555652s5.64058 2.487442 5.64058 5.555652z"/><path d="m17.4692 6.00012c0 2.88806-1.2627 5.23018-2.8203 5.23018-1.5577 0-2.8204-2.34212-2.8204-5.23018s1.2625-5.230223 2.8202-5.230223c1.5576 0 2.8203 2.341413 2.8203 5.230223"/><path d="m20 6.00015c0 2.58698-.444 4.68545-.9919 4.68545s-.9917-2.0979-.9917-4.68545c0-2.58756.444-4.68545.9917-4.68545s.9919 2.09771.9919 4.68545z"/></g></svg>