<svg fill="none" height="20" viewBox="0 0 20 20" width="20" xmlns="http://www.w3.org/2000/svg"><path clip-rule="evenodd" d="m5 0c-2.76142 0-5 2.23858-5 5v10c0 2.7614 2.23858 5 5 5h10c2.7614 0 5-2.2386 5-5v-10c0-2.76142-2.2386-5-5-5zm1.78781 13.2278c-.19911.2628-.14748.6373.11533.8364 1.09506.8297 2.48757 1.3525 3.79376 1.3525 1.371 0 2.8213-.5662 3.9355-1.4632.2568-.2068.2974-.5826.0907-.8394-.2068-.2569-.5826-.2975-.8395-.0907-.9118.7341-2.1033 1.1992-3.1867 1.1992-1.0298 0-2.17482-.4298-3.07269-1.1101-.26281-.1991-.63728-.1475-.8364.1153zm-.12118-6.56115c0-.46024.37309-.83334.83333-.83334s.83333.3731.83333.83334v2.5c0 .46023-.37309.83333-.83333.83333s-.83333-.3731-.83333-.83333zm7.50007-.83334c-.4602 0-.8333.3731-.8333.83334v2.5c0 .46023.3731.83333.8333.83333s.8333-.3731.8333-.83333v-2.5c0-.46024-.3731-.83334-.8333-.83334z" fill="#fff" fill-rule="evenodd"/></svg>