<svg fill="none" height="20" viewBox="0 0 20 20" width="20" xmlns="http://www.w3.org/2000/svg"><rect height="18.5" rx="4.25" stroke="#fff" stroke-width="1.5" width="18.5" x=".75" y=".75"/><g fill="#fff"><path d="m6.9032 14.0642c-.26281-.1991-.31444-.5736-.11532-.8364.19911-.2628.57358-.3144.83639-.1153.89787.6802 2.0429 1.1101 3.07263 1.1101 1.0835 0 2.275-.4652 3.1868-1.1992.2568-.2068.6327-.1662.8394.0906.2068.2569.1662.6327-.0907.8395-1.1142.8969-2.5644 1.4631-3.9355 1.4631-1.30613 0-2.69864-.5227-3.7937-1.3524z"/><rect height="4.16667" rx=".833333" width="1.66667" x="6.66669" y="5.83334"/><rect height="4.16667" rx=".833333" width="1.66667" x="13.3333" y="5.83334"/></g></svg>