<svg fill="none" height="17" viewBox="0 0 22 17" width="22" xmlns="http://www.w3.org/2000/svg"><path d="m4.10846 15.6593-2.7406-2.6729c-.20151-.1966-.20114-.5206.00084-.7167l6.72849-6.53191c.19308-.18744.49988-.18844.69419-.00228l1.64612 1.57716c.1956.18739.5048.18496.6974-.00547l2.8936-2.86082c.1988-.1965.1979-.51779-.002-.71314l-1.9192-1.87565c-.3206-.31329-.0987-.85759.3495-.85759h8.0432c.2761 0 .5.22386.5.5v7.85388c0 .4427-.5329.66702-.8495.35758l-1.9531-1.90887c-.1942-.18984-.5045-.1899-.6988-.00013l-4.8268 4.71394c-.1929.1884-.5005.1899-.6953.0033l-1.6472-1.5782c-.1947-.1866-.50231-.1851-.69524.0033l-4.82715 4.7143c-.19417.1896-.50416.1897-.69845.0002z" stroke="#000" stroke-width="1.5"/></svg>