<svg fill="none" height="16" viewBox="0 0 20 16" width="20" xmlns="http://www.w3.org/2000/svg"><path clip-rule="evenodd" d="m20 1.90769c-.7477.30769-1.4953.55385-2.3676.61539.8723-.49231 1.4953-1.29231 1.8069-2.215388-.81.492308-1.6823.799998-2.6169.984618-.7476-.800002-1.8068-1.29231-2.9283-1.29231-2.243 0-4.11217 1.78462-4.11217 4.06154 0 .30769.06231.61538.12461.92308-3.42679-.18462-6.41744-1.78462-8.47352-4.246158-.37383.615388-.560746 1.292308-.560746 2.030768 0 1.41539.747666 2.64615 1.806856 3.38462-.68536 0-1.30841-.18462-1.869161-.49231v.06154c0 1.96923 1.433021 3.56923 3.302181 3.93846-.37383.06154-.68536.12308-1.05919.12308-.24922 0-.49844 0-.74766-.06154.49844 1.60002 2.05607 2.76922 3.80062 2.83072-1.37072 1.1077-3.17757 1.7231-5.109035 1.7231-.311527 0-.685358 0-.996885-.0615 1.86916 1.1077 4.04984 1.7846 6.35514 1.7846 7.53896 0 11.65106-6.15385 11.65106-11.50769 0-.18462 0-.36923 0-.49231.7477-.61538 1.4331-1.29231 1.9938-2.09231z" fill="#fff" fill-rule="evenodd"/></svg>