<svg fill="none" height="18" viewBox="0 0 20 18" width="20" xmlns="http://www.w3.org/2000/svg"><g fill="#fff"><path d="m0 11.096v-3.976c0-.55228.447715-1 .999999-1h2.228471c.25077 0 .49239-.09422.67696-.26398l4.22024-3.88162c.641-.58956 1.67696-.13488 1.67696.73602v12.79518c0 .8709-1.03596 1.3256-1.67696.736l-4.22024-3.8816c-.18457-.1698-.42619-.264-.67696-.264h-2.22847c-.552285 0-1-.4477-1-1z"/><path d="m13.7965 13.5084.2367-.3238c.9219-1.2611 1.3691-2.8072 1.2628-4.36569l-.0344-.50368c-.085-1.24731-.5123-2.44704-1.2348-3.46732l-.2609-.36836c-.3497-.49386-1.0626-.54735-1.4821-.11119-.3.31191-.3555.78549-.1357 1.15831l.2762.46848c.4399.7462.7112 1.57958.795 2.44172.1306 1.34325-.2002 2.69093-.9378 3.82103l-.0915.1402c-.2435.3731-.2036.8638.0969 1.1927.4163.4556 1.1454.4157 1.5096-.0824z"/><path d="m17.8464 2.2416-.796-1.11774c-.4047-.568214-1.2374-.600058-1.6843-.06441-.2965.3554-.3293.86167-.0812 1.2524l.6213.97853c1.084 1.70709 1.6596 3.68746 1.6596 5.70962 0 2.0222-.5756 4.0025-1.6596 5.7096l-.556.8756c-.283.4458-.2259 1.0271.1385 1.4093.4976.5219 1.3473.462 1.7668-.1246l.6572-.9191c1.3538-1.893 2.0465-4.1792 1.9713-6.50527l-.0418-1.29248c-.0687-2.124-.763-4.18045-1.9958-5.91145z"/></g></svg>