<svg fill="none" height="20" viewBox="0 0 20 20" width="20" xmlns="http://www.w3.org/2000/svg"><path d="m1.66748 13.3333v-9.16663c0-.92048.74619-1.66667 1.66666-1.66667h13.33336c.9204 0 1.6666.74619 1.6666 1.66667v9.16663c0 .9205-.7462 1.6667-1.6666 1.6667h-13.33335c-.92048 0-1.66667-.7462-1.66667-1.6667z" fill="#fff"/><path d="m1.66748 13.3333v-9.16663c0-.92048.74619-1.66667 1.66666-1.66667h13.33336c.9204 0 1.6666.74619 1.6666 1.66667v9.16663c0 .9205-.7462 1.6667-1.6666 1.6667h-13.33335c-.92048 0-1.66667-.7462-1.66667-1.6667z" fill="#5322e5" fill-opacity=".36"/><path d="m1.66748 13.3333v-9.16663c0-.92048.74619-1.66667 1.66666-1.66667h13.33336c.9204 0 1.6666.74619 1.6666 1.66667v9.16663c0 .9205-.7462 1.6667-1.6666 1.6667h-13.33335c-.92048 0-1.66667-.7462-1.66667-1.6667z" stroke="#7349f2" stroke-linecap="round" stroke-linejoin="round" stroke-width="2"/><path d="m1.66748 13.3334v-4.99996h16.66662v4.99996c0 .9205-.7462 1.6667-1.6666 1.6667h-13.33335c-.92048 0-1.66667-.7462-1.66667-1.6667z" fill="#fff" stroke="#7349f2" stroke-linecap="round" stroke-linejoin="round" stroke-width="2"/><path d="m1.66748 14.0991v-9.8648c0-.8532.83587-1.45566 1.64528-1.18586l9.71514 3.23839c.6805.22681 1.1396.86375 1.1396 1.58112v8.98635c0 1.1376-1.1145 1.9409-2.1938 1.5812l-9.45151-3.1506c-.51042-.1701-.85471-.6478-.85471-1.1858z" fill="#fff"/><path d="m1.66748 14.0991v-9.8648c0-.8532.83587-1.45566 1.64528-1.18586l9.71514 3.23839c.6805.22681 1.1396.86375 1.1396 1.58112v8.98635c0 1.1376-1.1145 1.9409-2.1938 1.5812l-9.45151-3.1506c-.51042-.1701-.85471-.6478-.85471-1.1858z" fill="#5322e5" fill-opacity=".36"/><g stroke="#7349f2" stroke-width="2"><path d="m1.66748 14.0991v-9.8648c0-.8532.83587-1.45566 1.64528-1.18586l9.71514 3.23839c.6805.22681 1.1396.86375 1.1396 1.58112v8.98635c0 1.1376-1.1145 1.9409-2.1938 1.5812l-9.45151-3.1506c-.51042-.1701-.85471-.6478-.85471-1.1858z" stroke-linecap="round" stroke-linejoin="round"/><path d="m10.4175 13.3334c.6903 0 1.25-.5596 1.25-1.25 0-.6903-.5597-1.25-1.25-1.25-.69038 0-1.25002.5597-1.25002 1.25 0 .6904.55964 1.25 1.25002 1.25z" fill="#fff"/></g></svg>