<svg width="1440" height="560" viewBox="0 0 1440 560" fill="none" xmlns="http://www.w3.org/2000/svg"><mask id="mask0" mask-type="alpha" maskUnits="userSpaceOnUse" x="0" y="0" width="1440" height="560"><rect width="1440" height="560" fill="#C4C4C4"/></mask><g opacity=".5" clip-path="url(#clip0)"><path d="M540.459 277.814C534.306 280.521 527.449 281.19 520.889 279.723C514.329 278.257 508.41 274.731 503.997 269.661C503.444 269.052 502.734 268.608 501.944 268.379C501.155 268.149 500.317 268.142 499.524 268.36C498.731 268.577 498.014 269.01 497.452 269.61C496.89 270.21 496.505 270.954 496.34 271.76C490.747 298.559 483.84 372.602 562.807 419.05C639.709 369.28 629.688 295.595 622.919 269.062C622.721 268.262 622.304 267.533 621.716 266.957C621.128 266.38 620.391 265.978 619.588 265.795C618.785 265.612 617.946 265.656 617.166 265.921C616.387 266.186 615.696 266.663 615.17 267.297C611.258 272.177 605.981 275.781 600.013 277.65C594.044 279.519 587.654 279.568 581.657 277.792C575.661 276.016 570.329 272.494 566.341 267.676C562.353 262.858 559.89 256.961 559.266 250.738" stroke="#144699" stroke-width="3" stroke-miterlimit="10" stroke-linecap="round"/><path d="M549.056 325.014V319.848C549.013 316.948 550.123 314.149 552.143 312.066C554.162 309.984 556.926 308.789 559.826 308.743C562.727 308.7 565.526 309.81 567.608 311.83C569.69 313.85 570.885 316.613 570.931 319.514V324.737" stroke="#144699" stroke-width="3" stroke-miterlimit="10" stroke-linecap="round"/><path d="M560.654 361.418C571.6 361.246 580.334 352.233 580.162 341.287C579.99 330.341 570.977 321.607 560.031 321.778C549.085 321.95 540.35 330.964 540.522 341.91C540.694 352.856 549.707 361.59 560.654 361.418Z" stroke="#144699" stroke-width="3" stroke-miterlimit="10" stroke-linecap="round"/><path d="M564.247 338.7C564.225 337.941 563.989 337.203 563.566 336.572C563.143 335.94 562.551 335.441 561.857 335.131C561.163 334.822 560.396 334.714 559.644 334.822C558.891 334.929 558.185 335.246 557.605 335.737C557.437 335.856 557.292 336.004 557.178 336.175C556.835 336.622 556.588 337.135 556.453 337.681C556.317 338.228 556.296 338.796 556.39 339.352C556.484 339.907 556.692 340.437 557 340.908C557.308 341.379 557.71 341.782 558.181 342.091C558.421 342.233 558.617 342.438 558.747 342.684C558.877 342.93 558.937 343.208 558.919 343.486L558.596 347.003C558.58 347.178 558.601 347.355 558.658 347.522C558.714 347.689 558.805 347.842 558.925 347.972C559.045 348.101 559.19 348.204 559.352 348.273C559.514 348.343 559.689 348.378 559.865 348.375H561.018C561.194 348.373 561.369 348.334 561.529 348.26C561.689 348.187 561.832 348.08 561.949 347.947C562.065 347.814 562.152 347.659 562.205 347.49C562.257 347.321 562.273 347.144 562.252 346.968L561.825 343.509C561.797 343.232 561.847 342.952 561.969 342.701C562.092 342.451 562.281 342.239 562.517 342.091C563.069 341.718 563.517 341.212 563.819 340.619C564.122 340.026 564.269 339.366 564.247 338.7V338.7Z" stroke="#144699" stroke-width="3" stroke-miterlimit="10" stroke-linecap="round"/><path d="M798.805 10.8516L878.682 90.6715L958.456 10.8516H798.805Z" stroke="#353F52" stroke-width="3" stroke-linecap="round" stroke-linejoin="round"/><path d="M1118.09 170.503L1197.91 90.6831L1118.09 10.8516V170.503Z" stroke="#353F52" stroke-width="3" stroke-linecap="round" stroke-linejoin="round"/><path d="M1197.91 169.928L1277.17 90.6729L1197.91 11.418V169.928Z" stroke="#353F52" stroke-width="3" stroke-linecap="round" stroke-linejoin="round"/><path d="M958.453 90.6719L1038.27 170.492L1118.09 90.6719H958.453Z" stroke="#353F52" stroke-width="3" stroke-linecap="round" stroke-linejoin="round"/><path d="M1118.09 250.961L1038.27 171.141L958.453 250.961H1118.09Z" stroke="#353F52" stroke-width="3" stroke-linecap="round" stroke-linejoin="round"/><path d="M798.804 490.431C798.804 469.26 790.394 448.956 775.423 433.986C760.453 419.016 740.149 410.605 718.978 410.605C697.807 410.605 677.503 419.016 662.533 433.986C647.563 448.956 639.152 469.26 639.152 490.431H798.804Z" stroke="#353F52" stroke-width="3" stroke-linecap="round" stroke-linejoin="round"/><path d="M1038.27 410.609C1017.1 410.609 996.801 419.019 981.832 433.988C966.863 448.957 958.453 469.259 958.453 490.429H1199.94L1279.76 410.609L1199.94 330.789" stroke="#353F52" stroke-width="3" stroke-linecap="round" stroke-linejoin="round"/><path d="M1439.42 250.646C1439.42 229.475 1431.01 209.171 1416.04 194.201C1401.07 179.231 1380.76 170.82 1359.59 170.82C1338.42 170.82 1318.12 179.231 1303.15 194.201C1288.18 209.171 1279.77 229.475 1279.77 250.646H1439.42Z" stroke="#353F52" stroke-width="3" stroke-linecap="round" stroke-linejoin="round"/><path d="M1118.1 90.6734C1118.1 69.5023 1109.69 49.1983 1094.72 34.2281C1079.75 19.2578 1059.44 10.8477 1038.27 10.8477C1017.1 10.8477 996.796 19.2578 981.826 34.2281C966.856 49.1983 958.445 69.5023 958.445 90.6734H1118.1Z" stroke="#353F52" stroke-width="3" stroke-linecap="round" stroke-linejoin="round"/><path d="M878.682 374.205L922.743 330.143L878.682 286.082L834.574 330.143L878.682 374.205Z" stroke="#353F52" stroke-width="3" stroke-linecap="round" stroke-linejoin="round"/><path d="M878.682 317.482L922.744 273.421L878.682 229.371L834.621 273.432L878.682 317.482Z" stroke="#353F52" stroke-width="3" stroke-linecap="round" stroke-linejoin="round"/><path d="M1359.59 170.503L1439.41 90.6831L1359.59 10.8516L1279.77 90.6715L1359.59 170.503Z" stroke="#353F52" stroke-width="3" stroke-linecap="round" stroke-linejoin="round"/><path d="M160.223 330.144L240.043 250.324L160.223 170.504V330.144Z" stroke="#353F52" stroke-width="3" stroke-linecap="round" stroke-linejoin="round"/><path d="M240.043 330.144L319.863 250.324L240.043 170.504V330.144Z" stroke="#353F52" stroke-width="3" stroke-linecap="round" stroke-linejoin="round"/><path d="M559.332 250.961L639.152 171.141H479.512" stroke="#353F52" stroke-width="3" stroke-linecap="round" stroke-linejoin="round"/><path d="M80.3903 89.1286L0.570312 9.30859H202.369" stroke="#353F52" stroke-width="3" stroke-linecap="round" stroke-linejoin="round"/><path d="M479.515 330.791C479.515 309.619 471.105 289.315 456.134 274.345C441.164 259.375 420.86 250.965 399.689 250.965C378.518 250.965 358.214 259.375 343.244 274.345C328.273 289.315 319.863 309.619 319.863 330.791H479.515Z" stroke="#353F52" stroke-width="3" stroke-linecap="round" stroke-linejoin="round"/><path d="M319.863 10.8516C319.863 32.0227 328.273 52.3267 343.244 67.2969C358.214 82.2671 378.518 90.6773 399.689 90.6773C420.86 90.6773 441.164 82.2671 456.134 67.2969C471.105 52.3267 479.515 32.0227 479.515 10.8516H319.863Z" stroke="#353F52" stroke-width="3" stroke-linecap="round" stroke-linejoin="round"/><path d="M80.3903 250.323L160.21 170.503L80.3903 90.6719L0.570312 170.503L80.3903 250.323Z" stroke="#353F52" stroke-width="3" stroke-linecap="round" stroke-linejoin="round"/><path d="M399.691 490.429L479.511 410.609L399.691 330.789L319.871 410.609L399.691 490.429Z" stroke="#353F52" stroke-width="3" stroke-linecap="round" stroke-linejoin="round"/><path d="M559.332 170.503L639.152 90.6831L559.332 10.8516L479.512 90.6715L559.332 170.503Z" stroke="#353F52" stroke-width="3" stroke-linecap="round" stroke-linejoin="round"/><path d="M80.3903 409.964C124.474 409.964 160.21 374.228 160.21 330.144C160.21 286.061 124.474 250.324 80.3903 250.324C36.3069 250.324 0.570312 286.061 0.570312 330.144C0.570312 374.228 36.3069 409.964 80.3903 409.964Z" stroke="#353F52" stroke-width="3" stroke-linecap="round" stroke-linejoin="round"/><path d="M718.984 410.613C763.067 410.613 798.804 374.876 798.804 330.793C798.804 286.709 763.067 250.973 718.984 250.973C674.901 250.973 639.164 286.709 639.164 330.793C639.164 374.876 674.901 410.613 718.984 410.613Z" stroke="#353F52" stroke-width="3" stroke-linecap="round" stroke-linejoin="round"/><path d="M718.984 410.613C763.067 410.613 798.804 374.876 798.804 330.793C798.804 286.709 763.067 250.973 718.984 250.973C674.901 250.973 639.164 286.709 639.164 330.793C639.164 374.876 674.901 410.613 718.984 410.613Z" stroke="#353F52" stroke-width="3" stroke-linecap="round" stroke-linejoin="round"/><path d="M718.983 367.657C739.343 367.657 755.849 351.152 755.849 330.791C755.849 310.431 739.343 293.926 718.983 293.926C698.623 293.926 682.117 310.431 682.117 330.791C682.117 351.152 698.623 367.657 718.983 367.657Z" stroke="#353F52" stroke-width="3" stroke-linecap="round" stroke-linejoin="round"/><path d="M798.805 90.6719V330.789" stroke="#353F52" stroke-width="3" stroke-linecap="round" stroke-linejoin="round"/><path d="M639.152 90.6719V330.789" stroke="#353F52" stroke-width="3" stroke-linecap="round" stroke-linejoin="round"/><path d="M343.245 227.582L456.137 114.69M399.691 250.956V91.3164V250.956ZM456.137 227.582L343.245 114.69L456.137 227.582ZM319.871 171.136H479.511H319.871Z" stroke="#353F52" stroke-width="3" stroke-linecap="round" stroke-linejoin="round"/><path d="M981.827 386.59L1094.72 273.698M1038.27 409.976V250.324V409.976ZM1094.72 386.59L981.827 273.698L1094.72 386.59ZM958.453 330.144H1118.09H958.453Z" stroke="#353F52" stroke-width="3" stroke-linecap="round" stroke-linejoin="round"/><path d="M121.777 421.748C121.867 413.378 124.499 405.233 129.323 398.392C134.147 391.551 140.936 386.337 148.789 383.441C156.643 380.545 165.192 380.103 173.302 382.175C181.413 384.247 188.702 388.734 194.205 395.042C199.119 382.112 208.596 371.428 220.846 365.006C233.097 358.584 247.274 356.867 260.703 360.179C274.133 363.492 285.885 371.605 293.744 382.988C301.602 394.371 305.023 408.236 303.361 421.967C311.645 422.895 319.297 426.843 324.853 433.057C330.41 439.271 333.481 447.315 333.481 455.65V455.65C333.481 464.639 329.91 473.259 323.554 479.615C317.199 485.97 308.578 489.541 299.59 489.541H119.367C109.03 489.541 99.1158 485.435 91.8064 478.125C84.497 470.816 80.3906 460.902 80.3906 450.565V409.975" stroke="#144699" stroke-width="3" stroke-miterlimit="10"/><path d="M718.93 52.6644C703.634 52.664 688.532 56.0804 674.726 62.6641C660.921 69.2478 648.76 78.8325 639.133 90.7179C648.794 102.58 660.979 112.138 674.8 118.696C688.622 125.254 703.733 128.647 719.031 128.627C734.33 128.607 749.431 125.175 763.236 118.581C777.04 111.987 789.2 102.398 798.83 90.5103C789.172 78.6493 776.985 69.0959 763.162 62.5481C749.338 56.0003 734.226 52.6235 718.93 52.6644V52.6644Z" stroke="#144699" stroke-width="3" stroke-miterlimit="10"/><path d="M718.856 118.5C733.72 118.5 745.77 106.45 745.77 91.586C745.77 76.7218 733.72 64.6719 718.856 64.6719C703.991 64.6719 691.941 76.7218 691.941 91.586C691.941 106.45 703.991 118.5 718.856 118.5Z" stroke="#144699" stroke-width="3" stroke-miterlimit="10"/><path d="M1199.25 268.935C1211.32 268.826 1223.26 271.482 1234.14 276.699C1245.02 281.916 1254.57 289.556 1262.04 299.032C1272.59 285.239 1278.31 268.362 1278.32 250.998C1278.33 233.635 1272.64 216.75 1262.11 202.941C1254.82 212.86 1245.31 220.942 1234.35 226.546C1223.39 232.149 1211.27 235.12 1198.96 235.223C1186.64 235.326 1174.48 232.558 1163.42 227.139C1152.37 221.719 1142.73 213.798 1135.27 204.002C1124.98 217.988 1119.58 234.968 1119.89 252.327C1120.2 269.685 1126.21 286.46 1136.99 300.07C1144.3 290.472 1153.71 282.676 1164.51 277.279C1175.3 271.883 1187.19 269.028 1199.25 268.935V268.935Z" stroke="#144699" stroke-width="3" stroke-miterlimit="10"/><path d="M1158.89 319.19C1171.16 311.68 1185.24 307.648 1199.62 307.529C1214 307.409 1228.15 311.205 1240.54 318.51C1248.85 313.395 1256.16 306.793 1262.09 299.034C1254.61 289.561 1245.06 281.924 1234.18 276.707C1223.3 271.489 1211.37 268.828 1199.3 268.929C1187.23 269.029 1175.35 271.887 1164.55 277.284C1153.76 282.682 1144.34 290.476 1137.02 300.071C1143.08 307.733 1150.49 314.214 1158.89 319.19V319.19Z" stroke="#144699" stroke-width="3" stroke-miterlimit="10"/><path d="M1158.89 319.188C1171.28 326.493 1185.43 330.289 1199.81 330.169C1214.19 330.05 1228.27 326.018 1240.54 318.508C1228.15 311.202 1214 307.406 1199.62 307.526C1185.24 307.646 1171.16 311.677 1158.89 319.188V319.188Z" stroke="#144699" stroke-width="3" stroke-miterlimit="10"/><path d="M1198.99 235.243C1211.3 235.145 1223.42 232.176 1234.38 226.57C1245.34 220.965 1254.84 212.879 1262.12 202.955C1256.33 195.371 1249.21 188.891 1241.12 183.824C1228.48 192.046 1213.74 196.481 1198.66 196.608C1183.58 196.734 1168.77 192.547 1155.99 184.539C1147.98 189.74 1140.98 196.337 1135.31 204.016C1142.76 213.818 1152.4 221.745 1163.45 227.166C1174.51 232.587 1186.68 235.353 1198.99 235.243V235.243Z" stroke="#144699" stroke-width="3" stroke-miterlimit="10"/><path d="M1241.12 183.823C1228.34 175.817 1213.54 171.63 1198.45 171.757C1183.37 171.883 1168.64 176.318 1155.99 184.538C1168.77 192.546 1183.58 196.733 1198.66 196.607C1213.74 196.48 1228.48 192.045 1241.12 183.823V183.823Z" stroke="#144699" stroke-width="3" stroke-miterlimit="10"/><path d="M1278.32 250.301L1119.91 251.627" stroke="#144699" stroke-width="3" stroke-miterlimit="10"/><path d="M1213.21 328.897C1225.73 320.043 1235.93 308.29 1242.92 294.641C1249.92 280.992 1253.51 265.852 1253.38 250.515C1253.26 235.178 1249.42 220.099 1242.21 206.565C1234.99 193.031 1224.6 181.446 1211.94 172.797" stroke="#144699" stroke-width="3" stroke-miterlimit="10"/><path d="M1186.44 329.13C1173.76 320.486 1163.36 308.9 1156.14 295.362C1148.91 281.825 1145.06 266.738 1144.94 251.392C1144.81 236.046 1148.4 220.898 1155.4 207.241C1162.4 193.585 1172.6 181.827 1185.14 172.973" stroke="#144699" stroke-width="3" stroke-miterlimit="10"/><path d="M1198.46 171.75L1199.77 330.179" stroke="#144699" stroke-width="3" stroke-miterlimit="10"/><path d="M885.202 91.3164H872.056C834.545 91.3164 804.137 122.082 804.137 160.02C804.137 197.958 834.545 228.724 872.056 228.724H885.202" stroke="#144699" stroke-width="3" stroke-miterlimit="10" stroke-linecap="round"/><path d="M885.197 228.724C922.708 228.724 953.117 197.964 953.117 160.02C953.117 122.076 922.708 91.3164 885.197 91.3164C847.686 91.3164 817.277 122.076 817.277 160.02C817.277 197.964 847.686 228.724 885.197 228.724Z" stroke="#144699" stroke-width="3" stroke-miterlimit="10" stroke-linecap="round"/><path d="M922.697 378.07H834.574V490.443H922.697V378.07Z" stroke="#353F52" stroke-width="3" stroke-linecap="round" stroke-linejoin="round"/><path d="M1387.74 331.219H1331.45C1320.86 331.219 1312.28 339.799 1312.28 350.384V471.279C1312.28 481.863 1320.86 490.444 1331.45 490.444H1387.74C1398.33 490.444 1406.91 481.863 1406.91 471.279V350.384C1406.91 339.799 1398.33 331.219 1387.74 331.219Z" stroke="#144699" stroke-width="3" stroke-miterlimit="10" stroke-linecap="round"/><path d="M1356.38 335.656H1362.82" stroke="#144699" stroke-width="3" stroke-miterlimit="10" stroke-linecap="round"/><path d="M1313.3 477.41H1405.89" stroke="#144699" stroke-width="3" stroke-miterlimit="10" stroke-linecap="round"/><path d="M1355.04 484.27H1364.15" stroke="#144699" stroke-width="3" stroke-miterlimit="10" stroke-linecap="round"/><path d="M1319.18 335.656H1340.97C1341.34 335.656 1341.69 335.801 1341.94 336.058C1342.2 336.316 1342.35 336.665 1342.35 337.028V337.028C1342.35 337.64 1342.59 338.227 1343.02 338.659C1343.45 339.092 1344.04 339.335 1344.65 339.335H1374.63C1375.25 339.335 1375.83 339.092 1376.26 338.659C1376.7 338.227 1376.94 337.64 1376.94 337.028C1376.94 336.665 1377.08 336.316 1377.34 336.058C1377.6 335.801 1377.95 335.656 1378.31 335.656H1399.98" stroke="#144699" stroke-width="3" stroke-miterlimit="10" stroke-linecap="round"/><path d="M1337.79 441.247V424.965" stroke="#144699" stroke-width="3" stroke-miterlimit="10" stroke-linecap="round"/><path d="M1346.51 441.252V406.07" stroke="#144699" stroke-width="3" stroke-miterlimit="10" stroke-linecap="round"/><path d="M1355.24 441.248V394.004" stroke="#144699" stroke-width="3" stroke-miterlimit="10" stroke-linecap="round"/><path d="M1363.95 441.248V410.828" stroke="#144699" stroke-width="3" stroke-miterlimit="10" stroke-linecap="round"/><path d="M1372.68 441.249V383.754" stroke="#144699" stroke-width="3" stroke-miterlimit="10" stroke-linecap="round"/><path d="M1381.41 441.248V394.004" stroke="#144699" stroke-width="3" stroke-miterlimit="10" stroke-linecap="round"/><path d="M1359.6 330.283V306.067C1359.6 301.315 1361.49 296.757 1364.85 293.396C1368.21 290.035 1372.76 288.148 1377.52 288.148H1389.05C1393.8 288.148 1398.36 286.26 1401.72 282.899C1405.08 279.538 1406.97 274.98 1406.97 270.228V251.074" stroke="#144699" stroke-width="3" stroke-linecap="round" stroke-linejoin="round"/><path d="M1296.03 425.531C1304.46 425.531 1311.29 418.696 1311.29 410.264C1311.29 401.832 1304.46 394.996 1296.03 394.996C1287.59 394.996 1280.76 401.832 1280.76 410.264C1280.76 418.696 1287.59 425.531 1296.03 425.531Z" stroke="#353F52" stroke-width="3" stroke-linecap="round" stroke-linejoin="round"/><path d="M271.396 31.5294C276.383 36.4364 280.343 42.2881 283.043 48.7425C285.744 55.197 287.131 62.1249 287.124 69.1216V70.4592C287.125 73.117 287.72 75.741 288.866 78.1391L299.521 100.464C299.802 101.052 299.93 101.701 299.894 102.352C299.858 103.002 299.658 103.633 299.313 104.186C298.968 104.739 298.489 105.196 297.921 105.515C297.352 105.834 296.713 106.004 296.061 106.01H291.552C290.39 106.01 289.276 106.472 288.454 107.294C287.632 108.116 287.17 109.23 287.17 110.392V116.896C287.17 130.906 281.605 144.342 271.698 154.249C261.792 164.156 248.355 169.721 234.345 169.721H213.001C198.991 169.721 185.555 164.156 175.648 154.249C165.741 144.342 160.176 130.906 160.176 116.896V53.3698C160.179 46.7801 161.661 40.2752 164.512 34.3344C167.364 28.3935 171.511 23.168 176.65 19.0428C181.789 14.9177 187.788 11.998 194.205 10.4989C200.621 8.9998 207.293 8.95949 213.727 10.3809C223.841 12.4364 234.33 11.5766 243.974 7.90168L259.357 1.74394C261.746 0.785848 264.334 0.428466 266.894 0.703118C269.454 0.977769 271.907 1.87607 274.039 3.31929C276.171 4.76251 277.916 6.70659 279.122 8.98114C280.328 11.2557 280.957 13.7913 280.955 16.3657V16.3657C280.952 18.5801 280.513 20.7721 279.662 22.8165C278.811 24.8608 277.565 26.7174 275.996 28.2799C274.427 29.8425 272.566 31.0805 270.518 31.923C268.47 32.7655 266.276 33.196 264.062 33.1899H240.653C237.894 33.1892 235.168 33.7923 232.667 34.9568C230.165 36.1213 227.949 37.8191 226.173 39.931C224.398 42.0428 223.106 44.5177 222.388 47.1819C221.67 49.8461 221.544 52.6351 222.018 55.3532L225.685 76.6862C225.931 78.1174 225.611 79.5881 224.794 80.7884C223.977 81.9887 222.725 82.8248 221.303 83.1207V83.1207C220.02 83.3995 218.68 83.2142 217.521 82.5976C216.362 81.981 215.459 80.9733 214.973 79.7535C211.041 69.3753 198.298 68.3375 190.757 77.3204C185.579 83.4781 187.77 91.0427 190.296 96.0358C191.108 97.6758 191.323 99.5481 190.902 101.329C190.481 103.111 189.45 104.689 187.989 105.791L161.029 126.352" stroke="#144699" stroke-width="3" stroke-miterlimit="10"/><path d="M278.705 75.707C278.139 76.7628 277.298 77.6454 276.271 78.2608C275.243 78.8761 274.068 79.201 272.87 79.201C271.672 79.201 270.497 78.8761 269.47 78.2608C268.442 77.6454 267.601 76.7628 267.035 75.707" stroke="#144699" stroke-width="3" stroke-miterlimit="10" stroke-linecap="round"/><path d="M268.188 107.832C268.188 107.832 272.212 121.082 287.387 119.075" stroke="#144699" stroke-width="3" stroke-miterlimit="10" stroke-linecap="round"/></g><defs><clipPath id="clip0"><rect width="1440" height="491.005" fill="#fff"/></clipPath></defs></svg>