<svg width="232" height="70" viewBox="0 0 232 70" fill="none" xmlns="http://www.w3.org/2000/svg">
<rect width="232" height="70" rx="8" fill="white"/>
<path d="M56 26.1111V29.6667H24V26.1111C24 22.1822 27.1822 19 31.1111 19H48.8889C52.8178 19 56 22.1822 56 26.1111Z" fill="#4400FF"/>
<path d="M56 40.3334V43.8889C56 47.8178 52.8178 51 48.8889 51H31.1111C27.1822 51 24 47.8178 24 43.8889V40.3334H56Z" fill="#331799"/>
<path d="M56 29.6666H24V40.3333H56V29.6666Z" fill="#3D09D7"/>
<path d="M50.6506 39.4445C49.8186 39.4445 48.8301 39.6516 48.1021 40.1707C47.8941 40.3262 47.8941 40.5333 48.1546 40.5333C48.9866 40.4293 50.8595 40.1707 51.223 40.6373C51.535 41.0525 50.8586 42.816 50.5466 43.6453C50.4426 43.9049 50.6506 43.9565 50.8586 43.8009C52.263 42.608 52.6266 40.1698 52.367 39.8587C52.2106 39.6 51.4826 39.4445 50.6506 39.4445Z" fill="white"/>
<path d="M27.6889 40.1556C29.2978 41.1627 30.9245 42.1245 32.6321 42.8507C34.3334 43.5751 36.1183 44.0933 37.9121 44.1005C39.7387 44.1494 41.5938 43.8987 43.3938 43.4889C45.2001 43.0729 46.9601 42.4462 48.6889 41.7129C48.9147 41.616 49.1769 41.7218 49.2729 41.9476C49.3618 42.1565 49.2783 42.3965 49.0863 42.5085C47.4089 43.4765 45.5947 44.2267 43.7049 44.7351C41.8098 45.2436 39.8525 45.4658 37.8712 45.4338C35.8481 45.328 33.9112 44.712 32.1778 43.8151C30.4401 42.9138 28.8623 41.7796 27.4214 40.5111C27.3289 40.4294 27.3201 40.2889 27.4009 40.1965C27.4756 40.1138 27.5983 40.0987 27.6889 40.1556Z" fill="white"/>
<path d="M38.6666 37.6667H38.3074C37.2799 37.6667 36.4443 36.8312 36.4443 35.8036V32.3334H37.3332V35.8036C37.3332 36.3405 37.7706 36.7778 38.3074 36.7778H38.6666C39.2026 36.7778 39.9999 35.9805 39.9999 35.4445V34.5556H40.8888V35.4445C40.8888 36.4827 39.7048 37.6667 38.6666 37.6667Z" fill="white"/>
<path d="M29.3332 32.3334H28.4443V37.6667H29.3332V32.3334Z" fill="white"/>
<path d="M28.7921 34.2977C28.7734 33.8648 28.9228 33.5057 29.1228 33.1803C29.2268 33.0177 29.3414 32.8621 29.5032 32.7154C29.6828 32.5634 29.889 32.4639 30.1005 32.3963C30.9752 32.1368 31.8881 32.6674 32.2677 33.4594C32.4659 33.8603 32.4472 34.343 32.4445 34.6363V35.6461V37.6666H31.5557V35.6461V34.6363C31.5574 34.2621 31.5628 34.0461 31.4597 33.831C31.2739 33.3883 30.7254 33.1919 30.273 33.2052C29.8765 33.1883 29.3459 33.8186 29.2357 34.2977H28.7921Z" fill="white"/>
<path d="M31.7779 34.2977C31.7593 33.8648 31.9086 33.5057 32.1086 33.1803C32.2126 33.0177 32.3273 32.8621 32.4891 32.7154C32.6686 32.5634 32.8748 32.4639 33.0864 32.3963C33.9611 32.1368 34.8739 32.6674 35.2535 33.4594C35.4517 33.8603 35.4331 34.343 35.4304 34.6363V35.6461V37.6666H34.5415V35.6461V34.6363C34.5433 34.2621 34.5486 34.0461 34.4455 33.831C34.2597 33.3883 33.7113 33.1919 33.2588 33.2052C32.8624 33.1883 32.3317 33.8186 32.2215 34.2977H31.7779Z" fill="white"/>
<path d="M40.8889 32.3334H40V37.6667H40.8889V32.3334Z" fill="white"/>
<path d="M47.1111 32.3334H46.2222V37.6667H47.1111V32.3334Z" fill="white"/>
<path d="M46.6667 31.4444C47.1576 31.4444 47.5556 31.0464 47.5556 30.5555C47.5556 30.0646 47.1576 29.6666 46.6667 29.6666C46.1758 29.6666 45.7778 30.0646 45.7778 30.5555C45.7778 31.0464 46.1758 31.4444 46.6667 31.4444Z" fill="white"/>
<path d="M48.8889 34.6623V35.3378C48.8889 36.1289 49.5378 36.7778 50.3289 36.7778C50.7111 36.7778 51.0756 36.6267 51.3511 36.36L51.5556 36.1556V37.3112C51.1911 37.5423 50.7733 37.6667 50.3289 37.6667C49.0489 37.6667 48 36.6178 48 35.3378V34.6623C48 33.3823 49.0489 32.3334 50.3289 32.3334C50.7733 32.3334 51.1911 32.4578 51.5556 32.6889V33.8445L51.3511 33.64C51.0756 33.3734 50.7111 33.2223 50.3289 33.2223C49.5378 33.2223 48.8889 33.8712 48.8889 34.6623Z" fill="white"/>
<path d="M42.8845 33.1822C42.7956 33.2444 42.6667 33.4266 42.6667 33.6666C42.6667 34.1822 42.9512 34.3333 43.6978 34.5822C44.3912 34.8044 45.3334 35.1244 45.3334 36.3333C45.3334 36.7955 45.1556 37.1778 44.8089 37.4444C44.3734 37.7822 43.7156 37.8889 43.0845 37.8889C42.6045 37.8889 42.1245 37.8266 41.7778 37.7644V36.8578C42.6134 37.0266 43.8045 37.1066 44.2578 36.7422C44.3467 36.68 44.4445 36.5733 44.4445 36.3333C44.4445 35.8178 44.1601 35.6666 43.4134 35.4178C42.7201 35.1955 41.7778 34.8755 41.7778 33.6666C41.7778 33.2044 41.9556 32.8222 42.3023 32.5555C43.0756 31.9511 44.3529 32.112 45.1405 32.4098V33.3164C44.3174 32.8418 43.3378 32.8178 42.8845 33.1822Z" fill="white"/>
<path d="M72.9588 27H78.2301V25.8665H74.2756V18.2727H72.9588V27ZM79.63 27H80.9041V20.4545H79.63V27ZM80.2734 19.4446C80.7124 19.4446 81.0788 19.1037 81.0788 18.6861C81.0788 18.2685 80.7124 17.9233 80.2734 17.9233C79.8303 17.9233 79.468 18.2685 79.468 18.6861C79.468 19.1037 79.8303 19.4446 80.2734 19.4446ZM87.5231 22.0526C87.2589 21.0341 86.462 20.3693 85.0472 20.3693C83.5685 20.3693 82.5202 21.1491 82.5202 22.3082C82.5202 23.2372 83.0827 23.8551 84.31 24.1278L85.418 24.3707C86.0487 24.5114 86.3427 24.7926 86.3427 25.2017C86.3427 25.7088 85.8015 26.1051 84.9663 26.1051C84.2035 26.1051 83.7134 25.777 83.56 25.1335L82.3285 25.321C82.5415 26.4801 83.5046 27.1321 84.9748 27.1321C86.5558 27.1321 87.6509 26.2926 87.6509 25.108C87.6509 24.1832 87.0629 23.6122 85.8612 23.3352L84.8214 23.0966C84.1012 22.9261 83.7901 22.6832 83.7944 22.2401C83.7901 21.7372 84.3356 21.3793 85.06 21.3793C85.8526 21.3793 86.2191 21.8182 86.3683 22.2571L87.5231 22.0526ZM92.1072 20.4545H90.7649V18.8864H89.4908V20.4545H88.532V21.4773H89.4908V25.3423C89.4865 26.5312 90.3942 27.1065 91.3999 27.0852C91.8047 27.081 92.0774 27.0043 92.2266 26.9489L91.9964 25.8963C91.9112 25.9134 91.7536 25.9517 91.549 25.9517C91.1357 25.9517 90.7649 25.8153 90.7649 25.0781V21.4773H92.1072V20.4545ZM96.2674 27.1321C97.695 27.1321 98.7049 26.429 98.9947 25.3636L97.7887 25.1463C97.5586 25.7642 97.0046 26.0795 96.2802 26.0795C95.1893 26.0795 94.4563 25.3722 94.4222 24.1108H99.0756V23.6591C99.0756 21.294 97.6609 20.3693 96.1779 20.3693C94.354 20.3693 93.1523 21.7585 93.1523 23.7699C93.1523 25.8026 94.337 27.1321 96.2674 27.1321ZM94.4265 23.1562C94.4776 22.2273 95.1509 21.4219 96.1864 21.4219C97.1751 21.4219 97.8228 22.1548 97.8271 23.1562H94.4265ZM101.763 23.1136C101.763 22.0696 102.403 21.473 103.289 21.473C104.154 21.473 104.678 22.0398 104.678 22.9901V27H105.952V22.8366C105.952 21.2173 105.062 20.3693 103.724 20.3693C102.739 20.3693 102.096 20.8253 101.793 21.5199H101.712V20.4545H100.489V27H101.763V23.1136ZM113.594 27.1321C115.439 27.1321 116.645 25.7812 116.645 23.7571C116.645 21.7202 115.439 20.3693 113.594 20.3693C111.749 20.3693 110.543 21.7202 110.543 23.7571C110.543 25.7812 111.749 27.1321 113.594 27.1321ZM113.598 26.0625C112.392 26.0625 111.83 25.0099 111.83 23.7528C111.83 22.5 112.392 21.4347 113.598 21.4347C114.796 21.4347 115.358 22.5 115.358 23.7528C115.358 25.0099 114.796 26.0625 113.598 26.0625ZM119.342 23.1136C119.342 22.0696 119.981 21.473 120.867 21.473C121.732 21.473 122.256 22.0398 122.256 22.9901V27H123.531V22.8366C123.531 21.2173 122.64 20.3693 121.302 20.3693C120.317 20.3693 119.674 20.8253 119.371 21.5199H119.29V20.4545H118.067V27H119.342V23.1136Z" fill="#677184"/>
<path d="M74.642 49L75.6023 46.1307H79.9773L80.9432 49H83.1932L79.0909 37.3636H76.4886L72.392 49H74.642ZM76.1705 44.4375L77.7443 39.75H77.8352L79.4091 44.4375H76.1705ZM84.6349 49H86.6918V43.6932C86.6918 42.6193 87.4077 41.892 88.294 41.892C89.1634 41.892 89.7599 42.4773 89.7599 43.375V49H91.777V43.5568C91.777 42.5739 92.3622 41.892 93.3565 41.892C94.1861 41.892 94.8452 42.3807 94.8452 43.4602V49H96.9077V43.142C96.9077 41.1932 95.7827 40.1591 94.1804 40.1591C92.9134 40.1591 91.9474 40.7841 91.5611 41.7557H91.4702C91.1349 40.767 90.2884 40.1591 89.1122 40.1591C87.9418 40.1591 87.0668 40.7614 86.7031 41.7557H86.6009V40.2727H84.6349V49ZM101.506 49.1761C102.875 49.1761 103.693 48.5341 104.068 47.8011H104.136V49H106.114V43.1591C106.114 40.8523 104.233 40.1591 102.568 40.1591C100.733 40.1591 99.3239 40.9773 98.8693 42.5682L100.79 42.8409C100.994 42.2443 101.574 41.733 102.58 41.733C103.534 41.733 104.057 42.2216 104.057 43.0795V43.1136C104.057 43.7045 103.438 43.733 101.898 43.8977C100.205 44.0795 98.5852 44.5852 98.5852 46.5511C98.5852 48.267 99.8409 49.1761 101.506 49.1761ZM102.04 47.6648C101.182 47.6648 100.568 47.2727 100.568 46.517C100.568 45.7273 101.256 45.3977 102.176 45.267C102.716 45.1932 103.795 45.0568 104.062 44.8409V45.8693C104.062 46.8409 103.278 47.6648 102.04 47.6648ZM108.068 49H115.233V47.2955H110.801V47.2216L115.085 41.6761V40.2727H108.216V41.9773H112.568V42.0511L108.068 47.6932V49ZM120.723 49.1705C123.28 49.1705 124.905 47.3693 124.905 44.6705C124.905 41.9659 123.28 40.1591 120.723 40.1591C118.166 40.1591 116.541 41.9659 116.541 44.6705C116.541 47.3693 118.166 49.1705 120.723 49.1705ZM120.734 47.5227C119.32 47.5227 118.626 46.2614 118.626 44.6648C118.626 43.0682 119.32 41.7898 120.734 41.7898C122.126 41.7898 122.82 43.0682 122.82 44.6648C122.82 46.2614 122.126 47.5227 120.734 47.5227ZM128.707 43.8864C128.707 42.625 129.469 41.8977 130.554 41.8977C131.616 41.8977 132.253 42.5966 132.253 43.7614V49H134.31V43.4432C134.315 41.3523 133.122 40.1591 131.321 40.1591C130.014 40.1591 129.116 40.7841 128.719 41.7557H128.616V40.2727H126.651V49H128.707V43.8864Z" fill="#121D33"/>
</svg>
