<svg width="232" height="70" viewBox="0 0 232 70" fill="none" xmlns="http://www.w3.org/2000/svg"><rect width="232" height="70" rx="8" fill="#fff"/><path d="M54.9518 29.4844C54.9518 29.4844 53.6101 28.8483 52.2179 29.2611C51.177 29.5678 50.0351 30.3569 49.3858 31.9958C48.1334 35.1389 49.2175 40.6207 48.7937 40.6207C48.3698 40.6207 47.0347 35.5693 45.2494 30.3086C43.4641 25.0486 41.9196 19.5843 39.1322 20.025C36.6596 20.4144 37.4275 26.6443 38.3951 32.4796C39.272 37.7682 40.2866 42.7201 39.7068 42.7201C38.6711 42.7222 35.2718 28.1024 31.7883 28.6572C28.3048 29.2128 32.7918 45.3208 31.849 45.3515C31.0739 45.3764 29.1744 35.5459 26.3548 35.9975C24.2181 36.3401 26.122 43.9878 26.2098 46.1208C26.2311 46.6559 26.3972 47.6595 25.5943 47.6595H24V49.1461H26.6102C27.1468 49.1212 27.5713 48.9163 27.7858 48.3892C28.5105 46.6047 26.6066 39.0214 27.0524 38.9665C27.3583 38.9291 28.0186 41.2371 28.9401 43.8466C29.861 46.4561 30.7847 49.1622 32.5342 49.1622C36.3075 49.1622 32.4588 34.3682 33.2069 34.3682C33.6021 34.3682 34.6811 37.3737 35.8676 40.6712C37.3184 44.7001 39.0876 49.1681 41.2242 49.1681C43.7737 49.1681 42.9429 43.3964 42.1546 37.867C41.4709 33.0813 40.6694 28.584 41.0969 28.584C42.0594 28.5848 45.693 49.1608 50.057 49.1608C52.2435 49.1608 52.2684 44.8589 52.2684 40.2211C52.2684 36.963 51.9961 33.9948 54.0427 33.2812C55.0162 32.9415 56 33.5432 56 33.5432L54.9518 29.4844Z" fill="#5000B9"/><path d="M72.9588 27H78.2301V25.8665H74.2756V18.2727H72.9588V27ZM79.63 27H80.9041V20.4545H79.63V27ZM80.2734 19.4446C80.7124 19.4446 81.0788 19.1037 81.0788 18.6861C81.0788 18.2685 80.7124 17.9233 80.2734 17.9233C79.8303 17.9233 79.468 18.2685 79.468 18.6861C79.468 19.1037 79.8303 19.4446 80.2734 19.4446ZM87.5231 22.0526C87.2589 21.0341 86.462 20.3693 85.0472 20.3693C83.5685 20.3693 82.5202 21.1491 82.5202 22.3082C82.5202 23.2372 83.0827 23.8551 84.31 24.1278L85.418 24.3707C86.0487 24.5114 86.3427 24.7926 86.3427 25.2017C86.3427 25.7088 85.8015 26.1051 84.9663 26.1051C84.2035 26.1051 83.7134 25.777 83.56 25.1335L82.3285 25.321C82.5415 26.4801 83.5046 27.1321 84.9748 27.1321C86.5558 27.1321 87.6509 26.2926 87.6509 25.108C87.6509 24.1832 87.0629 23.6122 85.8612 23.3352L84.8214 23.0966C84.1012 22.9261 83.7901 22.6832 83.7944 22.2401C83.7901 21.7372 84.3356 21.3793 85.06 21.3793C85.8526 21.3793 86.2191 21.8182 86.3683 22.2571L87.5231 22.0526ZM92.1072 20.4545H90.7649V18.8864H89.4908V20.4545H88.532V21.4773H89.4908V25.3423C89.4865 26.5312 90.3942 27.1065 91.3999 27.0852C91.8047 27.081 92.0774 27.0043 92.2266 26.9489L91.9964 25.8963C91.9112 25.9134 91.7536 25.9517 91.549 25.9517C91.1357 25.9517 90.7649 25.8153 90.7649 25.0781V21.4773H92.1072V20.4545ZM96.2674 27.1321C97.695 27.1321 98.7049 26.429 98.9947 25.3636L97.7887 25.1463C97.5586 25.7642 97.0046 26.0795 96.2802 26.0795C95.1893 26.0795 94.4563 25.3722 94.4222 24.1108H99.0756V23.6591C99.0756 21.294 97.6609 20.3693 96.1779 20.3693C94.354 20.3693 93.1523 21.7585 93.1523 23.7699C93.1523 25.8026 94.337 27.1321 96.2674 27.1321ZM94.4265 23.1562C94.4776 22.2273 95.1509 21.4219 96.1864 21.4219C97.1751 21.4219 97.8228 22.1548 97.8271 23.1562H94.4265ZM101.763 23.1136C101.763 22.0696 102.403 21.473 103.289 21.473C104.154 21.473 104.678 22.0398 104.678 22.9901V27H105.952V22.8366C105.952 21.2173 105.062 20.3693 103.724 20.3693C102.739 20.3693 102.096 20.8253 101.793 21.5199H101.712V20.4545H100.489V27H101.763V23.1136ZM113.594 27.1321C115.439 27.1321 116.645 25.7812 116.645 23.7571C116.645 21.7202 115.439 20.3693 113.594 20.3693C111.749 20.3693 110.543 21.7202 110.543 23.7571C110.543 25.7812 111.749 27.1321 113.594 27.1321ZM113.598 26.0625C112.392 26.0625 111.83 25.0099 111.83 23.7528C111.83 22.5 112.392 21.4347 113.598 21.4347C114.796 21.4347 115.358 22.5 115.358 23.7528C115.358 25.0099 114.796 26.0625 113.598 26.0625ZM119.342 23.1136C119.342 22.0696 119.981 21.473 120.867 21.473C121.732 21.473 122.256 22.0398 122.256 22.9901V27H123.531V22.8366C123.531 21.2173 122.64 20.3693 121.302 20.3693C120.317 20.3693 119.674 20.8253 119.371 21.5199H119.29V20.4545H118.067V27H119.342V23.1136Z" fill="#677184"/><path d="M74.642 49L75.6023 46.1307H79.9773L80.9432 49H83.1932L79.0909 37.3636H76.4886L72.392 49H74.642ZM76.1705 44.4375L77.7443 39.75H77.8352L79.4091 44.4375H76.1705ZM86.6918 43.8864C86.6918 42.625 87.4531 41.8977 88.5384 41.8977C89.6009 41.8977 90.2372 42.5966 90.2372 43.7614V49H92.294V43.4432C92.2997 41.3523 91.1065 40.1591 89.3054 40.1591C87.9986 40.1591 87.1009 40.7841 86.7031 41.7557H86.6009V40.2727H84.6349V49H86.6918V43.8864ZM98.1918 49.1705C100.385 49.1705 101.783 47.8693 101.93 46.017H99.9645C99.7884 46.9545 99.1122 47.4943 98.2088 47.4943C96.9247 47.4943 96.0952 46.4205 96.0952 44.6364C96.0952 42.875 96.9418 41.8182 98.2088 41.8182C99.1974 41.8182 99.8054 42.4545 99.9645 43.2955H101.93C101.788 41.4034 100.311 40.1591 98.1804 40.1591C95.6236 40.1591 94.0099 42.0057 94.0099 44.6705C94.0099 47.3125 95.5838 49.1705 98.1918 49.1705ZM105.676 43.8864C105.676 42.625 106.46 41.8977 107.562 41.8977C108.642 41.8977 109.278 42.5852 109.278 43.7614V49H111.335V43.4432C111.335 41.3352 110.142 40.1591 108.33 40.1591C106.989 40.1591 106.136 40.767 105.733 41.7557H105.631V37.3636H103.619V49H105.676V43.8864ZM117.239 49.1705C119.795 49.1705 121.42 47.3693 121.42 44.6705C121.42 41.9659 119.795 40.1591 117.239 40.1591C114.682 40.1591 113.057 41.9659 113.057 44.6705C113.057 47.3693 114.682 49.1705 117.239 49.1705ZM117.25 47.5227C115.835 47.5227 115.142 46.2614 115.142 44.6648C115.142 43.0682 115.835 41.7898 117.25 41.7898C118.642 41.7898 119.335 43.0682 119.335 44.6648C119.335 46.2614 118.642 47.5227 117.25 47.5227ZM123.166 49H125.223V43.8693C125.223 42.7614 126.058 41.9773 127.189 41.9773C127.536 41.9773 127.967 42.0398 128.143 42.0966V40.2045C127.956 40.1705 127.632 40.1477 127.405 40.1477C126.405 40.1477 125.57 40.7159 125.251 41.7273H125.161V40.2727H123.166V49Z" fill="#121D33"/></svg>