<svg width="287" height="24" viewBox="0 0 287 24" fill="none" xmlns="http://www.w3.org/2000/svg"><path d="M191 21.2855H194.751V15.5339H197.904C201.984 15.5339 204.357 13.0998 204.357 9.55696C204.357 6.03145 202.027 3.54541 197.999 3.54541H191V21.2855ZM194.751 12.5281V6.61182H197.28C199.446 6.61182 200.494 7.78988 200.494 9.55696C200.494 11.3154 199.446 12.5281 197.297 12.5281H194.751Z" fill="#fff"/><path d="M212.521 21.5454C216.558 21.5454 219.07 18.7822 219.07 14.685C219.07 10.5618 216.558 7.8072 212.521 7.8072C208.485 7.8072 205.973 10.5618 205.973 14.685C205.973 18.7822 208.485 21.5454 212.521 21.5454ZM212.538 18.6869C210.676 18.6869 209.723 16.9804 209.723 14.659C209.723 12.3375 210.676 10.6224 212.538 10.6224C214.366 10.6224 215.319 12.3375 215.319 14.659C215.319 16.9804 214.366 18.6869 212.538 18.6869Z" fill="#fff"/><path d="M226.372 21.5021C228.52 21.5021 229.638 20.2634 230.149 19.1546H230.305V21.2855H233.943V3.54541H230.261V10.2153H230.149C229.655 9.13251 228.59 7.8072 226.363 7.8072C223.444 7.8072 220.975 10.0767 220.975 14.6503C220.975 19.1027 223.34 21.5021 226.372 21.5021ZM227.541 18.5656C225.731 18.5656 224.743 16.9545 224.743 14.633C224.743 12.3289 225.714 10.7437 227.541 10.7437C229.334 10.7437 230.339 12.2596 230.339 14.633C230.339 17.0064 229.317 18.5656 227.541 18.5656Z" fill="#fff"/><path d="M242.988 21.5454C246.531 21.5454 248.757 19.4665 248.93 16.4087H245.448C245.232 17.8293 244.296 18.6263 243.032 18.6263C241.308 18.6263 240.19 17.1797 240.19 14.633C240.19 12.121 241.316 10.683 243.032 10.683C244.383 10.683 245.249 11.5752 245.448 12.9006H248.93C248.775 9.82549 246.444 7.8072 242.971 7.8072C238.934 7.8072 236.44 10.6051 236.44 14.685C236.44 18.7302 238.891 21.5454 242.988 21.5454Z" fill="#fff"/><path d="M255.087 21.5367C257.053 21.5367 258.327 20.6792 258.976 19.4405H259.08V21.2855H262.58V12.3115C262.58 9.14117 259.895 7.8072 256.932 7.8072C253.744 7.8072 251.648 9.33174 251.137 11.7572L254.55 12.0343C254.801 11.1508 255.59 10.5011 256.915 10.5011C258.171 10.5011 258.89 11.1335 258.89 12.2249V12.2769C258.89 13.1344 257.98 13.247 255.667 13.4723C253.034 13.7148 250.669 14.5983 250.669 17.5695C250.669 20.2028 252.549 21.5367 255.087 21.5367ZM256.144 18.9901C255.009 18.9901 254.195 18.4617 254.195 17.4482C254.195 16.4087 255.052 15.8977 256.352 15.7158C257.157 15.6032 258.474 15.4126 258.916 15.1181V16.53C258.916 17.9246 257.764 18.9901 256.144 18.9901Z" fill="#fff"/><path d="M276.513 11.7745C276.184 9.32308 274.209 7.8072 270.848 7.8072C267.444 7.8072 265.2 9.38372 265.209 11.9477C265.2 13.94 266.456 15.2307 269.055 15.7504L271.359 16.2095C272.52 16.4434 273.048 16.8678 273.065 17.5348C273.048 18.3231 272.191 18.8861 270.9 18.8861C269.583 18.8861 268.708 18.3231 268.483 17.2403L264.854 17.4309C265.2 19.9776 267.366 21.5454 270.891 21.5454C274.339 21.5454 276.808 19.787 276.816 17.1623C276.808 15.2393 275.551 14.0873 272.97 13.5589L270.562 13.0738C269.323 12.8053 268.864 12.3808 268.873 11.7398C268.864 10.9429 269.765 10.4232 270.909 10.4232C272.191 10.4232 272.953 11.1248 273.135 11.9824L276.513 11.7745Z" fill="#fff"/><path d="M286.217 7.98044H283.713V4.79276H280.023V7.98044H278.204V10.7523H280.023V17.6821C280.006 20.2894 281.782 21.5801 284.458 21.4675C285.411 21.4328 286.087 21.2422 286.459 21.121L285.879 18.3751C285.697 18.4097 285.307 18.4963 284.961 18.4963C284.224 18.4963 283.713 18.2191 283.713 17.197V10.7523H286.217V7.98044Z" fill="#fff"/><g clip-path="url(#clip0_168:719)"><path fill-rule="evenodd" clip-rule="evenodd" d="M106.92 3.87913C106.896 3.47437 106.994 3.07172 107.201 2.72331C107.409 2.3749 107.716 2.09678 108.083 1.92495C108.451 1.75313 108.861 1.69551 109.261 1.75956C109.662 1.82361 110.034 2.00638 110.329 2.28421C110.624 2.56203 110.829 2.92212 110.918 3.31785C111.006 3.71357 110.974 4.12671 110.825 4.50377C110.675 4.88083 110.417 5.20445 110.081 5.43272C109.746 5.661 109.35 5.78342 108.945 5.78413C108.687 5.79213 108.43 5.74919 108.188 5.65776C107.947 5.56634 107.726 5.42822 107.538 5.2513C107.35 5.07438 107.198 4.86213 107.092 4.62669C106.986 4.39124 106.928 4.13721 106.92 3.87913ZM107.07 7.52413H110.805V21.0241H107.07V7.52413ZM7.2 3.02409H0V21.0241H7.71C11.745 21.0241 13.905 18.9091 13.905 16.0441C13.958 14.9403 13.5707 13.8606 12.8282 13.0422C12.0857 12.2237 11.0487 11.7335 9.94501 11.6791V11.4991C10.8642 11.3576 11.7008 10.8873 12.2995 10.1755C12.8981 9.46378 13.2181 8.55895 13.2 7.62909C13.2 4.94409 11.175 3.02409 7.2 3.02409ZM9.34499 8.24409C9.34499 9.66909 8.13 10.5241 6.63 10.5241L3.75 10.5691V6.06909H6.69001C8.38501 6.06909 9.34499 6.81909 9.34499 8.24409ZM9.90001 15.6391C9.90001 16.9891 9.03001 17.8741 6.90001 17.8741H3.75V13.1041H6.90001C7.26735 13.051 7.64178 13.0763 7.9986 13.1785C8.35541 13.2808 8.68651 13.4575 8.97002 13.697C9.25352 13.9366 9.48299 14.2336 9.6433 14.5683C9.8036 14.9031 9.89111 15.268 9.90001 15.6391ZM15.75 21.0241H19.545L19.485 3.02409H15.75V21.0241ZM21.51 14.3192C21.51 10.1342 24.06 7.34415 28.155 7.34415C32.25 7.34415 34.8 10.1342 34.8 14.3192C34.8 18.5042 32.25 21.2792 28.155 21.2792C24.06 21.2792 21.51 18.4892 21.51 14.3192ZM30.99 14.3117C30.9879 11.9605 30.013 10.2242 28.17 10.2242C26.325 10.2242 25.305 11.9642 25.305 14.3192C25.305 16.6742 26.28 18.3992 28.17 18.3992C30.058 18.3992 30.988 16.6629 30.99 14.3117ZM42.84 7.34415C38.745 7.34415 36.21 10.1792 36.21 14.3192C36.21 18.4292 38.7 21.2792 42.84 21.2792C46.395 21.2792 48.66 19.1792 48.84 16.0742H45.3C45.2614 16.6922 44.9855 17.2714 44.5298 17.6907C44.0742 18.11 43.4741 18.337 42.855 18.3242C41.1 18.3242 39.975 16.7792 39.975 14.2742C39.975 11.7692 41.115 10.2692 42.855 10.2692C43.4741 10.2563 44.0742 10.4833 44.5298 10.9026C44.9855 11.3219 45.2614 11.9011 45.3 12.5192H48.84C48.72 9.39916 46.365 7.34415 42.84 7.34415ZM50.805 3.02409H54.555V12.6391H54.75L59.085 7.52409H63.375L58.365 13.3741L63.63 21.0241H59.25L55.56 15.5791L54.555 16.7341V21.0241H50.805V3.02409ZM70.245 7.34415C66.15 7.34415 63.615 10.1792 63.615 14.3192C63.615 18.4292 66.105 21.2792 70.275 21.2792C73.845 21.2792 76.095 19.1792 76.275 16.0742H72.75C72.7077 16.6935 72.4286 17.2728 71.9705 17.6917C71.5125 18.1107 70.9106 18.3372 70.29 18.3242C68.535 18.3242 67.41 16.7792 67.41 14.2742C67.41 11.7692 68.55 10.2692 70.29 10.2692C70.9106 10.2561 71.5125 10.4826 71.9705 10.9016C72.4286 11.3206 72.7077 11.8998 72.75 12.5192H76.245C76.14 9.39916 73.77 7.34415 70.245 7.34415ZM81.96 21.0241H78.225V3.02409H81.855V9.90909H82.02C82.3253 9.10311 82.8834 8.41765 83.6108 7.95528C84.3381 7.49291 85.1956 7.27848 86.055 7.34409C88.86 7.34409 90.72 9.26409 90.72 12.4291V21.0241H86.97V13.0891C87.0195 12.7522 86.9935 12.4085 86.8937 12.083C86.7939 11.7574 86.6229 11.4581 86.3932 11.2068C86.1634 10.9555 85.8806 10.7585 85.5653 10.6301C85.2499 10.5016 84.91 10.4449 84.57 10.4641C84.2104 10.4496 83.8518 10.5123 83.5185 10.6479C83.1851 10.7836 82.8847 10.9891 82.6374 11.2506C82.3901 11.5121 82.2017 11.8235 82.0848 12.1639C81.968 12.5044 81.9254 12.8658 81.96 13.2241V21.0241ZM97.62 13.0892C94.95 13.3442 92.55 14.2592 92.55 17.2592C92.55 19.9292 94.455 21.2792 97.035 21.2792C97.8277 21.3404 98.6213 21.1721 99.3208 20.7944C100.02 20.4167 100.596 19.8455 100.98 19.1492H101.085V21.0242H104.64V11.9042C104.64 8.67915 101.91 7.32915 98.91 7.32915C95.67 7.32915 93.555 8.87416 93.03 11.3342L96.495 11.6192C96.6629 11.1322 96.9929 10.7176 97.4297 10.4445C97.8665 10.1715 98.3837 10.0567 98.895 10.1192C100.17 10.1192 100.89 10.7642 100.89 11.8742C100.89 12.7592 99.9751 12.8642 97.62 13.0892ZM100.92 14.6942V16.1942C100.899 16.5393 100.81 16.8767 100.657 17.1867C100.504 17.4967 100.29 17.773 100.029 17.9994C99.7676 18.2258 99.4637 18.3977 99.135 18.5049C98.8064 18.6122 98.4596 18.6528 98.1151 18.6242C96.9601 18.6242 96.135 18.0992 96.135 17.0492C96.135 15.9992 97.0051 15.4742 98.3251 15.2942C99.2146 15.2212 100.089 15.019 100.92 14.6942ZM113.25 21.0241H117.06L117 13.2241C116.959 12.8696 116.994 12.5103 117.105 12.1709C117.216 11.8315 117.398 11.52 117.64 11.2579C117.883 10.9957 118.179 10.789 118.508 10.652C118.838 10.515 119.193 10.4509 119.55 10.4641C119.889 10.4477 120.228 10.5062 120.542 10.6356C120.856 10.765 121.138 10.962 121.367 11.2127C121.596 11.4634 121.767 11.7615 121.868 12.0858C121.969 12.4101 121.997 12.7527 121.95 13.0891V21.0241H125.7V12.4291C125.7 9.27914 123.855 7.34413 121.035 7.34413C120.174 7.29097 119.318 7.51009 118.588 7.97045C117.859 8.43081 117.293 9.10907 116.97 9.90913H116.82V7.52413H113.25V21.0241Z" fill="#fff"/><path opacity=".8" fill-rule="evenodd" clip-rule="evenodd" d="M166.95 7.524H163.38L163.365 21.024H167.115V12.924C167.084 12.6144 167.117 12.3018 167.212 12.0055C167.307 11.7093 167.462 11.4359 167.668 11.2022C167.873 10.9686 168.125 10.7798 168.407 10.6477C168.688 10.5155 168.994 10.4428 169.305 10.434C169.589 10.4218 169.871 10.4708 170.134 10.5775C170.397 10.6842 170.634 10.8461 170.829 11.0524C171.024 11.2586 171.172 11.5044 171.264 11.7729C171.355 12.0415 171.388 12.3266 171.36 12.609V21.024H174.99V12.774C174.958 12.4728 174.99 12.1682 175.086 11.8808C175.181 11.5933 175.338 11.3297 175.544 11.1079C175.75 10.886 176.001 10.711 176.281 10.5947C176.561 10.4785 176.862 10.4237 177.165 10.434C177.457 10.421 177.748 10.4717 178.018 10.5825C178.288 10.6933 178.531 10.8617 178.729 11.0758C178.927 11.2899 179.077 11.5447 179.167 11.8225C179.257 12.1002 179.285 12.3942 179.25 12.684V21.024H183V12.024C183.029 11.0334 182.721 10.0623 182.125 9.27044C181.529 8.47859 180.681 7.91311 179.721 7.667C178.761 7.42089 177.746 7.50879 176.842 7.91626C175.939 8.32373 175.201 9.0265 174.75 9.909H174.54C174.312 9.12608 173.824 8.44464 173.155 7.97799C172.487 7.51135 171.678 7.28762 170.865 7.344C170.046 7.3073 169.238 7.53761 168.562 8.00024C167.885 8.46287 167.378 9.13276 167.115 9.909H166.95V7.524ZM140.7 7.34402C136.605 7.34402 134.085 10.179 134.085 14.319C134.085 18.429 136.56 21.279 140.775 21.279C144.345 21.279 146.61 19.179 146.775 16.074H143.25C143.208 16.6934 142.929 17.2726 142.471 17.6916C142.012 18.1106 141.411 18.337 140.79 18.324C139.05 18.324 137.91 16.779 137.91 14.274C137.91 11.769 139.05 10.269 140.79 10.269C141.411 10.256 142.012 10.4825 142.471 10.9015C142.929 11.3204 143.208 11.8997 143.25 12.519H146.7C146.595 9.39903 144.225 7.34402 140.7 7.34402ZM128.87 17.6588C128.477 18.0494 128.254 18.5797 128.25 19.1341C128.248 19.4111 128.301 19.6858 128.406 19.9423C128.51 20.1988 128.665 20.4321 128.86 20.6287C129.055 20.8253 129.287 20.9813 129.543 21.0878C129.799 21.1943 130.073 21.2491 130.35 21.2491C130.907 21.2491 131.441 21.0278 131.835 20.634C132.229 20.2402 132.45 19.706 132.45 19.1491C132.45 18.5921 132.229 18.058 131.835 17.6641C131.441 17.2703 130.907 17.0491 130.35 17.0491C129.796 17.0491 129.264 17.2682 128.87 17.6588ZM148.14 14.319C148.14 10.134 150.69 7.34402 154.785 7.34402C158.88 7.34402 161.415 10.134 161.415 14.319C161.415 18.504 158.88 21.279 154.785 21.279C150.69 21.279 148.14 18.489 148.14 14.319ZM157.62 14.3116C157.618 11.9604 156.643 10.224 154.8 10.224C152.955 10.224 151.935 11.964 151.935 14.319C151.935 16.674 152.91 18.399 154.8 18.399C156.688 18.399 157.618 16.6628 157.62 14.3116Z" fill="#fff"/></g><defs><clipPath id="clip0_168:719"><rect width="183" height="24" fill="#fff"/></clipPath></defs></svg>