<svg width="232" height="70" viewBox="0 0 232 70" fill="none" xmlns="http://www.w3.org/2000/svg"><rect width="232" height="70" rx="8" fill="#fff"/><path d="M25.9407 33.9055V36.0936Z" fill="#000"/><path d="M25.9407 33.9055V36.0936" stroke="#0066D9" stroke-width="3.88" stroke-linecap="round"/><path d="M54.0591 33.9055V36.0936Z" fill="#000"/><path d="M54.0591 33.9055V36.0936" stroke="#4285F4" stroke-width="3.88" stroke-linecap="round"/><path d="M32.9702 27.3416V34.4984V27.3416ZM32.9702 40.47V42.658Z" fill="#000"/><path d="M32.9702 40.47V42.658M32.9702 27.3416V34.4984V27.3416Z" stroke="#EA4335" stroke-width="3.88" stroke-linecap="round"/><path d="M47.0295 35.5007V42.6575V35.5007ZM47.0295 27.3407V29.5288Z" fill="#000"/><path d="M47.0295 27.3407V29.5288M47.0295 35.5007V42.6575V35.5007Z" stroke="#34A853" stroke-width="3.88" stroke-linecap="round"/><path d="M39.9998 29.1647V40.8343V29.1647ZM39.9998 20.9399V23.128V20.9399ZM39.9998 46.8704V49.0585Z" fill="#000"/><path d="M39.9998 46.8704V49.0585M39.9998 29.1647V40.8343V29.1647ZM39.9998 20.9399V23.128V20.9399Z" stroke="#FAB908" stroke-width="3.88" stroke-linecap="round"/><path d="M72.9588 27H78.2301V25.8665H74.2756V18.2727H72.9588V27ZM79.63 27H80.9041V20.4545H79.63V27ZM80.2734 19.4446C80.7124 19.4446 81.0788 19.1037 81.0788 18.6861C81.0788 18.2685 80.7124 17.9233 80.2734 17.9233C79.8303 17.9233 79.468 18.2685 79.468 18.6861C79.468 19.1037 79.8303 19.4446 80.2734 19.4446ZM87.5231 22.0526C87.2589 21.0341 86.462 20.3693 85.0472 20.3693C83.5685 20.3693 82.5202 21.1491 82.5202 22.3082C82.5202 23.2372 83.0827 23.8551 84.31 24.1278L85.418 24.3707C86.0487 24.5114 86.3427 24.7926 86.3427 25.2017C86.3427 25.7088 85.8015 26.1051 84.9663 26.1051C84.2035 26.1051 83.7134 25.777 83.56 25.1335L82.3285 25.321C82.5415 26.4801 83.5046 27.1321 84.9748 27.1321C86.5558 27.1321 87.6509 26.2926 87.6509 25.108C87.6509 24.1832 87.0629 23.6122 85.8612 23.3352L84.8214 23.0966C84.1012 22.9261 83.7901 22.6832 83.7944 22.2401C83.7901 21.7372 84.3356 21.3793 85.06 21.3793C85.8526 21.3793 86.2191 21.8182 86.3683 22.2571L87.5231 22.0526ZM92.1072 20.4545H90.7649V18.8864H89.4908V20.4545H88.532V21.4773H89.4908V25.3423C89.4865 26.5312 90.3942 27.1065 91.3999 27.0852C91.8047 27.081 92.0774 27.0043 92.2266 26.9489L91.9964 25.8963C91.9112 25.9134 91.7536 25.9517 91.549 25.9517C91.1357 25.9517 90.7649 25.8153 90.7649 25.0781V21.4773H92.1072V20.4545ZM96.2674 27.1321C97.695 27.1321 98.7049 26.429 98.9947 25.3636L97.7887 25.1463C97.5586 25.7642 97.0046 26.0795 96.2802 26.0795C95.1893 26.0795 94.4563 25.3722 94.4222 24.1108H99.0756V23.6591C99.0756 21.294 97.6609 20.3693 96.1779 20.3693C94.354 20.3693 93.1523 21.7585 93.1523 23.7699C93.1523 25.8026 94.337 27.1321 96.2674 27.1321ZM94.4265 23.1562C94.4776 22.2273 95.1509 21.4219 96.1864 21.4219C97.1751 21.4219 97.8228 22.1548 97.8271 23.1562H94.4265ZM101.763 23.1136C101.763 22.0696 102.403 21.473 103.289 21.473C104.154 21.473 104.678 22.0398 104.678 22.9901V27H105.952V22.8366C105.952 21.2173 105.062 20.3693 103.724 20.3693C102.739 20.3693 102.096 20.8253 101.793 21.5199H101.712V20.4545H100.489V27H101.763V23.1136ZM113.594 27.1321C115.439 27.1321 116.645 25.7812 116.645 23.7571C116.645 21.7202 115.439 20.3693 113.594 20.3693C111.749 20.3693 110.543 21.7202 110.543 23.7571C110.543 25.7812 111.749 27.1321 113.594 27.1321ZM113.598 26.0625C112.392 26.0625 111.83 25.0099 111.83 23.7528C111.83 22.5 112.392 21.4347 113.598 21.4347C114.796 21.4347 115.358 22.5 115.358 23.7528C115.358 25.0099 114.796 26.0625 113.598 26.0625ZM119.342 23.1136C119.342 22.0696 119.981 21.473 120.867 21.473C121.732 21.473 122.256 22.0398 122.256 22.9901V27H123.531V22.8366C123.531 21.2173 122.64 20.3693 121.302 20.3693C120.317 20.3693 119.674 20.8253 119.371 21.5199H119.29V20.4545H118.067V27H119.342V23.1136Z" fill="#677184"/><path d="M80.9432 41.0795H83.0909C82.733 38.7955 80.7557 37.2045 78.1818 37.2045C75.1364 37.2045 72.8523 39.4432 72.8523 43.1932C72.8523 46.875 75.0341 49.1591 78.2443 49.1591C81.125 49.1591 83.1875 47.3068 83.1875 44.3068V42.9091H78.4659V44.5568H81.1477C81.1136 46.2159 80.0057 47.267 78.2557 47.267C76.3068 47.267 74.9716 45.8068 74.9716 43.1705C74.9716 40.5511 76.3295 39.0966 78.2102 39.0966C79.6136 39.0966 80.5682 39.8466 80.9432 41.0795ZM88.9418 49.1705C91.4986 49.1705 93.1236 47.3693 93.1236 44.6705C93.1236 41.9659 91.4986 40.1591 88.9418 40.1591C86.3849 40.1591 84.7599 41.9659 84.7599 44.6705C84.7599 47.3693 86.3849 49.1705 88.9418 49.1705ZM88.9531 47.5227C87.5384 47.5227 86.8452 46.2614 86.8452 44.6648C86.8452 43.0682 87.5384 41.7898 88.9531 41.7898C90.3452 41.7898 91.0384 43.0682 91.0384 44.6648C91.0384 46.2614 90.3452 47.5227 88.9531 47.5227ZM98.6761 49.1705C101.233 49.1705 102.858 47.3693 102.858 44.6705C102.858 41.9659 101.233 40.1591 98.6761 40.1591C96.1193 40.1591 94.4943 41.9659 94.4943 44.6705C94.4943 47.3693 96.1193 49.1705 98.6761 49.1705ZM98.6875 47.5227C97.2727 47.5227 96.5795 46.2614 96.5795 44.6648C96.5795 43.0682 97.2727 41.7898 98.6875 41.7898C100.08 41.7898 100.773 43.0682 100.773 44.6648C100.773 46.2614 100.08 47.5227 98.6875 47.5227ZM108.399 52.4545C110.757 52.4545 112.496 51.375 112.496 49.142V40.2727H110.467V41.7159H110.354C110.041 41.0852 109.388 40.1591 107.848 40.1591C105.831 40.1591 104.246 41.7386 104.246 44.608C104.246 47.4545 105.831 48.875 107.842 48.875C109.337 48.875 110.036 48.0739 110.354 47.4318H110.456V49.0852C110.456 50.3693 109.604 50.8977 108.433 50.8977C107.195 50.8977 106.649 50.3125 106.399 49.8011L104.547 50.25C104.922 51.4716 106.178 52.4545 108.399 52.4545ZM108.416 47.2614C107.058 47.2614 106.342 46.2045 106.342 44.5966C106.342 43.0114 107.047 41.8466 108.416 41.8466C109.74 41.8466 110.467 42.9432 110.467 44.5966C110.467 46.2614 109.729 47.2614 108.416 47.2614ZM116.661 37.3636H114.604V49H116.661V37.3636ZM122.639 49.1705C124.673 49.1705 126.071 48.1761 126.435 46.6591L124.514 46.4432C124.236 47.1818 123.554 47.5682 122.668 47.5682C121.338 47.5682 120.457 46.6932 120.44 45.1989H126.52V44.5682C126.52 41.5057 124.679 40.1591 122.531 40.1591C120.031 40.1591 118.401 41.9943 118.401 44.6875C118.401 47.4261 120.009 49.1705 122.639 49.1705ZM120.446 43.8125C120.509 42.6989 121.332 41.7614 122.56 41.7614C123.741 41.7614 124.537 42.625 124.548 43.8125H120.446ZM132.32 49H134.428V45.0682H136.655C139.342 45.0682 140.786 43.4545 140.786 41.2159C140.786 38.9943 139.359 37.3636 136.683 37.3636H132.32V49ZM134.428 43.3352V39.125H136.359C137.939 39.125 138.638 39.9773 138.638 41.2159C138.638 42.4545 137.939 43.3352 136.371 43.3352H134.428ZM146.207 49.1705C148.764 49.1705 150.389 47.3693 150.389 44.6705C150.389 41.9659 148.764 40.1591 146.207 40.1591C143.651 40.1591 142.026 41.9659 142.026 44.6705C142.026 47.3693 143.651 49.1705 146.207 49.1705ZM146.219 47.5227C144.804 47.5227 144.111 46.2614 144.111 44.6648C144.111 43.0682 144.804 41.7898 146.219 41.7898C147.611 41.7898 148.304 43.0682 148.304 44.6648C148.304 46.2614 147.611 47.5227 146.219 47.5227ZM155.374 49.1534C156.874 49.1534 157.55 48.2614 157.874 47.625H157.999V49H160.021V37.3636H157.959V41.7159H157.874C157.561 41.0852 156.919 40.1591 155.379 40.1591C153.362 40.1591 151.777 41.7386 151.777 44.6477C151.777 47.5227 153.317 49.1534 155.374 49.1534ZM155.947 47.4659C154.589 47.4659 153.874 46.2727 153.874 44.6364C153.874 43.0114 154.578 41.8466 155.947 41.8466C157.271 41.8466 157.999 42.9432 157.999 44.6364C157.999 46.3295 157.26 47.4659 155.947 47.4659ZM166.02 49.1705C168.213 49.1705 169.611 47.8693 169.759 46.017H167.793C167.616 46.9545 166.94 47.4943 166.037 47.4943C164.753 47.4943 163.923 46.4205 163.923 44.6364C163.923 42.875 164.77 41.8182 166.037 41.8182C167.026 41.8182 167.634 42.4545 167.793 43.2955H169.759C169.616 41.4034 168.139 40.1591 166.009 40.1591C163.452 40.1591 161.838 42.0057 161.838 44.6705C161.838 47.3125 163.412 49.1705 166.02 49.1705ZM173.959 49.1761C175.328 49.1761 176.146 48.5341 176.521 47.8011H176.589V49H178.567V43.1591C178.567 40.8523 176.686 40.1591 175.021 40.1591C173.186 40.1591 171.777 40.9773 171.322 42.5682L173.243 42.8409C173.447 42.2443 174.027 41.733 175.033 41.733C175.987 41.733 176.51 42.2216 176.51 43.0795V43.1136C176.51 43.7045 175.891 43.733 174.351 43.8977C172.658 44.0795 171.038 44.5852 171.038 46.5511C171.038 48.267 172.294 49.1761 173.959 49.1761ZM174.493 47.6648C173.635 47.6648 173.021 47.2727 173.021 46.517C173.021 45.7273 173.709 45.3977 174.629 45.267C175.169 45.1932 176.249 45.0568 176.516 44.8409V45.8693C176.516 46.8409 175.732 47.6648 174.493 47.6648ZM187.533 42.5795C187.249 41.1023 186.067 40.1591 184.021 40.1591C181.919 40.1591 180.487 41.1932 180.493 42.8068C180.487 44.0795 181.271 44.9205 182.947 45.267L184.436 45.5795C185.237 45.7557 185.612 46.0795 185.612 46.5739C185.612 47.1705 184.964 47.6193 183.987 47.6193C183.044 47.6193 182.43 47.2102 182.254 46.4261L180.249 46.6193C180.504 48.2216 181.851 49.1705 183.993 49.1705C186.175 49.1705 187.714 48.0398 187.72 46.3864C187.714 45.142 186.913 44.3807 185.266 44.0227L183.777 43.7045C182.891 43.5057 182.538 43.1989 182.544 42.6932C182.538 42.1023 183.192 41.6932 184.05 41.6932C184.999 41.6932 185.499 42.2102 185.658 42.7841L187.533 42.5795ZM193.774 40.2727H192.053V38.1818H189.996V40.2727H188.757V41.8636H189.996V46.7159C189.984 48.358 191.178 49.1648 192.723 49.1193C193.308 49.1023 193.712 48.9886 193.933 48.9148L193.587 47.3068C193.473 47.3352 193.24 47.3864 192.984 47.3864C192.467 47.3864 192.053 47.2045 192.053 46.375V41.8636H193.774V40.2727ZM202.267 42.5795C201.983 41.1023 200.801 40.1591 198.756 40.1591C196.653 40.1591 195.222 41.1932 195.227 42.8068C195.222 44.0795 196.006 44.9205 197.682 45.267L199.17 45.5795C199.972 45.7557 200.347 46.0795 200.347 46.5739C200.347 47.1705 199.699 47.6193 198.722 47.6193C197.778 47.6193 197.165 47.2102 196.989 46.4261L194.983 46.6193C195.239 48.2216 196.585 49.1705 198.727 49.1705C200.909 49.1705 202.449 48.0398 202.455 46.3864C202.449 45.142 201.648 44.3807 200 44.0227L198.511 43.7045C197.625 43.5057 197.273 43.1989 197.278 42.6932C197.273 42.1023 197.926 41.6932 198.784 41.6932C199.733 41.6932 200.233 42.2102 200.392 42.7841L202.267 42.5795Z" fill="#121D33"/></svg>