<svg fill="none" height="70" viewBox="0 0 232 70" width="232" xmlns="http://www.w3.org/2000/svg"><rect fill="#fff" height="70" rx="8" width="232"/><path clip-rule="evenodd" d="m56 35c0 8.8367-7.1633 16-16 16s-16-7.1633-16-16 7.1633-16 16-16 16 7.1633 16 16z" fill="#f43e37" fill-rule="evenodd"/><path clip-rule="evenodd" d="m27.5557 35c0-6.8729 5.5715-12.4445 12.4444-12.4445s12.4445 5.5716 12.4445 12.4445h-3.1112c0-5.1547-4.1786-9.3333-9.3333-9.3333s-9.3333 4.1786-9.3333 9.3333 4.1786 9.3333 9.3333 9.3333v3.1111c-6.8729 0-12.4444-5.5715-12.4444-12.4444zm12.4444 7.4667c-4.1237 0-7.4667-3.343-7.4667-7.4667s3.343-7.4667 7.4667-7.4667 7.4667 3.343 7.4667 7.4667h-2.7152c0-2.6242-2.1273-4.7515-4.7515-4.7515s-4.7515 2.1273-4.7515 4.7515 2.1273 4.7515 4.7515 4.7515z" fill="#fff" fill-rule="evenodd"/><path d="m72.9588 27h5.2713v-1.1335h-3.9545v-7.5938h-1.3168zm6.6712 0h1.2741v-6.5455h-1.2741zm.6434-7.5554c.439 0 .8054-.3409.8054-.7585s-.3664-.7628-.8054-.7628c-.4431 0-.8054.3452-.8054.7628s.3623.7585.8054.7585zm7.2497 2.608c-.2642-1.0185-1.0611-1.6833-2.4759-1.6833-1.4787 0-2.527.7798-2.527 1.9389 0 .929.5625 1.5469 1.7898 1.8196l1.108.2429c.6307.1407.9247.4219.9247.831 0 .5071-.5412.9034-1.3764.9034-.7628 0-1.2529-.3281-1.4063-.9716l-1.2315.1875c.213 1.1591 1.1761 1.8111 2.6463 1.8111 1.581 0 2.6761-.8395 2.6761-2.0241 0-.9248-.588-1.4958-1.7897-1.7728l-1.0398-.2386c-.7202-.1705-1.0313-.4134-1.027-.8565-.0043-.5029.5412-.8608 1.2656-.8608.7926 0 1.1591.4389 1.3083.8778zm4.5841-1.5981h-1.3423v-1.5681h-1.2741v1.5681h-.9588v1.0228h.9588v3.865c-.0043 1.1889.9034 1.7642 1.9091 1.7429.4048-.0042.6775-.0809.8267-.1363l-.2302-1.0526c-.0852.0171-.2428.0554-.4474.0554-.4133 0-.7841-.1364-.7841-.8736v-3.6008h1.3423zm4.1602 6.6776c1.4276 0 2.4375-.7031 2.7273-1.7685l-1.206-.2173c-.2301.6179-.7841.9332-1.5085.9332-1.0909 0-1.8239-.7073-1.858-1.9687h4.6534v-.4517c0-2.3651-1.4147-3.2898-2.8977-3.2898-1.8239 0-3.0256 1.3892-3.0256 3.4006 0 2.0327 1.1847 3.3622 3.1151 3.3622zm-1.8409-3.9759c.0511-.9289.7244-1.7343 1.7599-1.7343.9887 0 1.6364.7329 1.6407 1.7343zm7.3365-.0426c0-1.044.64-1.6406 1.526-1.6406.865 0 1.389.5668 1.389 1.5171v4.0099h1.274v-4.1634c0-1.6193-.89-2.4673-2.228-2.4673-.985 0-1.628.456-1.931 1.1506h-.081v-1.0654h-1.223v6.5455h1.274zm11.831 4.0185c1.845 0 3.051-1.3509 3.051-3.375 0-2.0369-1.206-3.3878-3.051-3.3878s-3.051 1.3509-3.051 3.3878c0 2.0241 1.206 3.375 3.051 3.375zm.004-1.0696c-1.206 0-1.768-1.0526-1.768-2.3097 0-1.2528.562-2.3181 1.768-2.3181 1.198 0 1.76 1.0653 1.76 2.3181 0 1.2571-.562 2.3097-1.76 2.3097zm5.744-2.9489c0-1.044.639-1.6406 1.525-1.6406.865 0 1.389.5668 1.389 1.5171v4.0099h1.275v-4.1634c0-1.6193-.891-2.4673-2.229-2.4673-.985 0-1.628.456-1.931 1.1506h-.081v-1.0654h-1.223v6.5455h1.275z" fill="#677184"/><path d="m73.1477 49h2.108v-3.9318h2.2273c2.6875 0 4.1306-1.6137 4.1306-3.8523 0-2.2216-1.4261-3.8523-4.1022-3.8523h-4.3637zm2.108-5.6648v-4.2102h1.9318c1.5795 0 2.2784.8523 2.2784 2.0909s-.6989 2.1193-2.267 2.1193zm11.7798 5.8353c2.5568 0 4.1818-1.8012 4.1818-4.5 0-2.7046-1.625-4.5114-4.1818-4.5114s-4.1818 1.8068-4.1818 4.5114c0 2.6988 1.625 4.5 4.1818 4.5zm.0114-1.6478c-1.4148 0-2.108-1.2613-2.108-2.8579s.6932-2.875 2.108-2.875c1.392 0 2.0852 1.2784 2.0852 2.875s-.6932 2.8579-2.0852 2.8579zm9.723 1.6478c2.1932 0 3.5911-1.3012 3.7391-3.1535h-1.9664c-.1761.9375-.8523 1.4773-1.7557 1.4773-1.2841 0-2.1136-1.0738-2.1136-2.8579 0-1.7614.8466-2.8182 2.1136-2.8182.9887 0 1.5966.6363 1.7557 1.4773h1.9664c-.143-1.8921-1.6198-3.1364-3.7505-3.1364-2.5568 0-4.1704 1.8466-4.1704 4.5114 0 2.642 1.5738 4.5 4.1818 4.5zm5.4271-.1705h2.057v-2.9318l.75-.8012 2.671 3.733h2.46l-3.58-4.9602 3.381-3.7671h-2.403l-3.137 3.5057h-.142v-6.4148h-2.057zm12.614.1705c2.034 0 3.432-.9944 3.796-2.5114l-1.921-.2159c-.278.7386-.96 1.125-1.847 1.125-1.329 0-2.21-.875-2.227-2.3693h6.08v-.6307c0-3.0625-1.841-4.4091-3.989-4.4091-2.5 0-4.131 1.8352-4.131 4.5284 0 2.7386 1.608 4.483 4.239 4.483zm-2.193-5.358c.062-1.1136.886-2.0511 2.114-2.0511 1.181 0 1.977.8636 1.988 2.0511zm12.172-3.5398h-1.722v-2.0909h-2.057v2.0909h-1.238v1.5909h1.238v4.8523c-.011 1.6421 1.182 2.4489 2.728 2.4034.585-.017.988-.1307 1.21-.2045l-.347-1.608c-.113.0284-.346.0796-.602.0796-.517 0-.932-.1819-.932-1.0114v-4.5114h1.722zm15.74 1.0171c-.358-2.5853-2.347-4.0853-4.926-4.0853-3.04 0-5.33 2.216-5.33 5.9773 0 3.7557 2.262 5.9773 5.33 5.9773 2.767 0 4.602-1.7898 4.926-4.0114l-2.125-.0113c-.267 1.3636-1.381 2.1306-2.773 2.1306-1.886 0-3.239-1.4147-3.239-4.0852 0-2.625 1.341-4.0852 3.245-4.0852 1.415 0 2.523.8011 2.767 2.1932zm4.351 7.8863c1.369 0 2.187-.642 2.562-1.375h.068v1.1989h1.978v-5.8409c0-2.3068-1.881-3-3.546-3-1.835 0-3.244.8182-3.699 2.4091l1.921.2727c.204-.5966.784-1.1079 1.79-1.1079.954 0 1.477.4886 1.477 1.3465v.0341c0 .5909-.62.6194-2.159.7841-1.693.1818-3.313.6875-3.313 2.6534 0 1.7159 1.256 2.625 2.921 2.625zm.534-1.5113c-.858 0-1.472-.3921-1.472-1.1478 0-.7897.688-1.1193 1.608-1.25.54-.0738 1.619-.2102 1.887-.4261v1.0284c0 .9716-.785 1.7955-2.023 1.7955zm13.04-5.0853c-.285-1.4772-1.466-2.4204-3.512-2.4204-2.102 0-3.534 1.0341-3.528 2.6477-.006 1.2727.778 2.1137 2.454 2.4602l1.489.3125c.801.1762 1.176.5 1.176.9944 0 .5966-.648 1.0454-1.625 1.0454-.943 0-1.557-.4091-1.733-1.1932l-2.006.1932c.256 1.6023 1.603 2.5512 3.745 2.5512 2.182 0 3.721-1.1307 3.727-2.7841-.006-1.2444-.807-2.0057-2.454-2.3637l-1.489-.3182c-.887-.1988-1.239-.5056-1.233-1.0113-.006-.5909.648-1 1.506-1 .948 0 1.448.517 1.608 1.0909zm6.241-2.3068h-1.722v-2.0909h-2.056v2.0909h-1.239v1.5909h1.239v4.8523c-.012 1.6421 1.181 2.4489 2.727 2.4034.585-.017.989-.1307 1.21-.2045l-.346-1.608c-.114.0284-.347.0796-.603.0796-.517 0-.932-.1819-.932-1.0114v-4.5114h1.722zm8.493 2.3068c-.284-1.4772-1.466-2.4204-3.511-2.4204-2.103 0-3.535 1.0341-3.529 2.6477-.006 1.2727.779 2.1137 2.455 2.4602l1.488.3125c.801.1762 1.176.5 1.176.9944 0 .5966-.647 1.0454-1.625 1.0454-.943 0-1.556-.4091-1.732-1.1932l-2.006.1932c.256 1.6023 1.602 2.5512 3.744 2.5512 2.182 0 3.722-1.1307 3.727-2.7841-.005-1.2444-.806-2.0057-2.454-2.3637l-1.489-.3182c-.886-.1988-1.238-.5056-1.233-1.0113-.005-.5909.648-1 1.506-1 .949 0 1.449.517 1.608 1.0909z" fill="#121d33"/></svg>