<svg width="232" height="70" viewBox="0 0 232 70" fill="none" xmlns="http://www.w3.org/2000/svg"><rect width="232" height="70" rx="8" fill="#fff"/><path fill-rule="evenodd" clip-rule="evenodd" d="M54.2585 50.2344C48.6458 47.5824 43.0331 52.8865 37.4199 50.2344V23.7119C43.0326 26.364 48.6453 21.0598 54.2585 23.7119V50.2344Z" fill="#CE262F"/><path fill-rule="evenodd" clip-rule="evenodd" d="M45.1511 36.0113C45.3456 35.9666 45.5395 35.9207 45.7339 35.8748C46.4569 35.7039 46.5259 35.2474 46.527 34.7123V31.8298C46.527 31.203 46.4575 30.8224 45.7339 30.9933C45.5395 31.0391 45.3456 31.085 45.1511 31.1298V36.0113ZM45.1511 38.824V45.751C44.1175 45.9901 43.0839 46.2075 42.0498 46.303V29.009C43.5188 28.873 44.9879 28.4913 46.4569 28.1501C49.0915 27.5418 49.6502 28.8834 49.6513 30.996V34.4595C49.6519 36.6082 48.7897 37.9743 46.6201 38.4794C46.1305 38.5919 45.6408 38.7104 45.1511 38.824Z" fill="#fff"/><path fill-rule="evenodd" clip-rule="evenodd" d="M42.0667 46.3182C42.0667 46.3182 41.806 47.792 37.4197 50.2344V35.9059L42.0667 46.3182Z" fill="#992326"/><path fill-rule="evenodd" clip-rule="evenodd" d="M42.0511 46.2882C36.3672 43.6361 30.6839 48.9402 25 46.2882V19.7656C30.6839 22.4177 36.3672 17.1135 42.0511 19.7656V46.2882Z" fill="#CE262F"/><path fill-rule="evenodd" clip-rule="evenodd" d="M32.7939 31.5615C32.996 31.5157 33.1982 31.4682 33.4003 31.4212C34.0291 31.2738 34.2635 30.9887 34.2624 30.1751V27.8277C34.263 27.084 34.1233 26.8826 33.4934 27.0294C33.2601 27.084 33.0273 27.1386 32.7939 27.1916V31.5615ZM32.7939 41.8123C31.7603 42.0481 30.7268 42.2616 29.6926 42.3566V25.0626C31.3249 24.9125 32.9572 24.468 34.5894 24.1049C36.4786 23.6773 37.4333 24.6569 37.4338 26.5113V29.2769C37.4349 30.7141 36.6412 31.4201 36.0584 31.7832C36.5481 31.8771 37.3884 32.3669 37.3873 33.6512V39.532C37.3873 40.2757 37.5258 40.5891 37.6436 40.7901V40.9064C36.61 40.979 35.5764 41.1783 34.5429 41.4093C34.3802 41.2591 34.263 40.914 34.2624 40.1474V35.1031C34.2613 34.2906 34.0762 34.1224 33.4468 34.2693C33.2294 34.3201 33.0114 34.3709 32.7939 34.4206V41.8123Z" fill="#fff"/><path d="M72.9588 27H78.2301V25.8665H74.2756V18.2727H72.9588V27ZM79.63 27H80.9041V20.4545H79.63V27ZM80.2734 19.4446C80.7124 19.4446 81.0788 19.1037 81.0788 18.6861C81.0788 18.2685 80.7124 17.9233 80.2734 17.9233C79.8303 17.9233 79.468 18.2685 79.468 18.6861C79.468 19.1037 79.8303 19.4446 80.2734 19.4446ZM87.5231 22.0526C87.2589 21.0341 86.462 20.3693 85.0472 20.3693C83.5685 20.3693 82.5202 21.1491 82.5202 22.3082C82.5202 23.2372 83.0827 23.8551 84.31 24.1278L85.418 24.3707C86.0487 24.5114 86.3427 24.7926 86.3427 25.2017C86.3427 25.7088 85.8015 26.1051 84.9663 26.1051C84.2035 26.1051 83.7134 25.777 83.56 25.1335L82.3285 25.321C82.5415 26.4801 83.5046 27.1321 84.9748 27.1321C86.5558 27.1321 87.6509 26.2926 87.6509 25.108C87.6509 24.1832 87.0629 23.6122 85.8612 23.3352L84.8214 23.0966C84.1012 22.9261 83.7901 22.6832 83.7944 22.2401C83.7901 21.7372 84.3356 21.3793 85.06 21.3793C85.8526 21.3793 86.2191 21.8182 86.3683 22.2571L87.5231 22.0526ZM92.1072 20.4545H90.7649V18.8864H89.4908V20.4545H88.532V21.4773H89.4908V25.3423C89.4865 26.5312 90.3942 27.1065 91.3999 27.0852C91.8047 27.081 92.0774 27.0043 92.2266 26.9489L91.9964 25.8963C91.9112 25.9134 91.7536 25.9517 91.549 25.9517C91.1357 25.9517 90.7649 25.8153 90.7649 25.0781V21.4773H92.1072V20.4545ZM96.2674 27.1321C97.695 27.1321 98.7049 26.429 98.9947 25.3636L97.7887 25.1463C97.5586 25.7642 97.0046 26.0795 96.2802 26.0795C95.1893 26.0795 94.4563 25.3722 94.4222 24.1108H99.0756V23.6591C99.0756 21.294 97.6609 20.3693 96.1779 20.3693C94.354 20.3693 93.1523 21.7585 93.1523 23.7699C93.1523 25.8026 94.337 27.1321 96.2674 27.1321ZM94.4265 23.1562C94.4776 22.2273 95.1509 21.4219 96.1864 21.4219C97.1751 21.4219 97.8228 22.1548 97.8271 23.1562H94.4265ZM101.763 23.1136C101.763 22.0696 102.403 21.473 103.289 21.473C104.154 21.473 104.678 22.0398 104.678 22.9901V27H105.952V22.8366C105.952 21.2173 105.062 20.3693 103.724 20.3693C102.739 20.3693 102.096 20.8253 101.793 21.5199H101.712V20.4545H100.489V27H101.763V23.1136ZM113.594 27.1321C115.439 27.1321 116.645 25.7812 116.645 23.7571C116.645 21.7202 115.439 20.3693 113.594 20.3693C111.749 20.3693 110.543 21.7202 110.543 23.7571C110.543 25.7812 111.749 27.1321 113.594 27.1321ZM113.598 26.0625C112.392 26.0625 111.83 25.0099 111.83 23.7528C111.83 22.5 112.392 21.4347 113.598 21.4347C114.796 21.4347 115.358 22.5 115.358 23.7528C115.358 25.0099 114.796 26.0625 113.598 26.0625ZM119.342 23.1136C119.342 22.0696 119.981 21.473 120.867 21.473C121.732 21.473 122.256 22.0398 122.256 22.9901V27H123.531V22.8366C123.531 21.2173 122.64 20.3693 121.302 20.3693C120.317 20.3693 119.674 20.8253 119.371 21.5199H119.29V20.4545H118.067V27H119.342V23.1136Z" fill="#677184"/><path d="M73.1477 49H75.2557V44.7386H77.4034L79.6875 49H82.0398L79.5227 44.3864C80.892 43.8352 81.6136 42.6648 81.6136 41.0852C81.6136 38.8636 80.1818 37.3636 77.5114 37.3636H73.1477V49ZM75.2557 42.9886V39.125H77.1875C78.7614 39.125 79.4659 39.8466 79.4659 41.0852C79.4659 42.3239 78.7614 42.9886 77.1989 42.9886H75.2557ZM85.9744 49.1761C87.3438 49.1761 88.1619 48.5341 88.5369 47.8011H88.6051V49H90.5824V43.1591C90.5824 40.8523 88.7017 40.1591 87.0369 40.1591C85.2017 40.1591 83.7926 40.9773 83.3381 42.5682L85.2585 42.8409C85.4631 42.2443 86.0426 41.733 87.0483 41.733C88.0028 41.733 88.5256 42.2216 88.5256 43.0795V43.1136C88.5256 43.7045 87.9062 43.733 86.3665 43.8977C84.6733 44.0795 83.054 44.5852 83.054 46.5511C83.054 48.267 84.3097 49.1761 85.9744 49.1761ZM86.5085 47.6648C85.6506 47.6648 85.0369 47.2727 85.0369 46.517C85.0369 45.7273 85.7244 45.3977 86.6449 45.267C87.1847 45.1932 88.2642 45.0568 88.5312 44.8409V45.8693C88.5312 46.8409 87.7472 47.6648 86.5085 47.6648ZM95.8892 49.1534C97.3892 49.1534 98.0653 48.2614 98.3892 47.625H98.5142V49H100.537V37.3636H98.4744V41.7159H98.3892C98.0767 41.0852 97.4347 40.1591 95.8949 40.1591C93.8778 40.1591 92.2926 41.7386 92.2926 44.6477C92.2926 47.5227 93.8324 49.1534 95.8892 49.1534ZM96.4631 47.4659C95.1051 47.4659 94.3892 46.2727 94.3892 44.6364C94.3892 43.0114 95.0938 41.8466 96.4631 41.8466C97.7869 41.8466 98.5142 42.9432 98.5142 44.6364C98.5142 46.3295 97.7756 47.4659 96.4631 47.4659ZM102.729 49H104.786V40.2727H102.729V49ZM103.763 39.0341C104.416 39.0341 104.95 38.5341 104.95 37.9205C104.95 37.3011 104.416 36.8011 103.763 36.8011C103.104 36.8011 102.57 37.3011 102.57 37.9205C102.57 38.5341 103.104 39.0341 103.763 39.0341ZM110.707 49.1705C113.264 49.1705 114.889 47.3693 114.889 44.6705C114.889 41.9659 113.264 40.1591 110.707 40.1591C108.151 40.1591 106.526 41.9659 106.526 44.6705C106.526 47.3693 108.151 49.1705 110.707 49.1705ZM110.719 47.5227C109.304 47.5227 108.611 46.2614 108.611 44.6648C108.611 43.0682 109.304 41.7898 110.719 41.7898C112.111 41.7898 112.804 43.0682 112.804 44.6648C112.804 46.2614 112.111 47.5227 110.719 47.5227ZM116.726 49H118.834V45.0682H121.061C123.749 45.0682 125.192 43.4545 125.192 41.2159C125.192 38.9943 123.766 37.3636 121.089 37.3636H116.726V49ZM118.834 43.3352V39.125H120.766C122.345 39.125 123.044 39.9773 123.044 41.2159C123.044 42.4545 122.345 43.3352 120.777 43.3352H118.834ZM132.494 45.3295C132.494 46.6591 131.545 47.3182 130.636 47.3182C129.648 47.3182 128.989 46.6193 128.989 45.5114V40.2727H126.932V45.8295C126.932 47.9261 128.125 49.1136 129.841 49.1136C131.148 49.1136 132.068 48.4261 132.466 47.4489H132.557V49H134.551V40.2727H132.494V45.3295ZM136.757 49H138.78V47.625H138.899C139.223 48.2614 139.899 49.1534 141.399 49.1534C143.456 49.1534 144.996 47.5227 144.996 44.6477C144.996 41.7386 143.411 40.1591 141.393 40.1591C139.854 40.1591 139.212 41.0852 138.899 41.7159H138.814V37.3636H136.757V49ZM138.774 44.6364C138.774 42.9432 139.501 41.8466 140.825 41.8466C142.195 41.8466 142.899 43.0114 142.899 44.6364C142.899 46.2727 142.183 47.4659 140.825 47.4659C139.513 47.4659 138.774 46.3295 138.774 44.6364ZM148.801 37.3636H146.744V49H148.801V37.3636ZM150.916 49H152.973V40.2727H150.916V49ZM151.95 39.0341C152.604 39.0341 153.138 38.5341 153.138 37.9205C153.138 37.3011 152.604 36.8011 151.95 36.8011C151.291 36.8011 150.757 37.3011 150.757 37.9205C150.757 38.5341 151.291 39.0341 151.95 39.0341ZM158.895 49.1705C161.088 49.1705 162.486 47.8693 162.634 46.017H160.668C160.491 46.9545 159.815 47.4943 158.912 47.4943C157.628 47.4943 156.798 46.4205 156.798 44.6364C156.798 42.875 157.645 41.8182 158.912 41.8182C159.901 41.8182 160.509 42.4545 160.668 43.2955H162.634C162.491 41.4034 161.014 40.1591 158.884 40.1591C156.327 40.1591 154.713 42.0057 154.713 44.6705C154.713 47.3125 156.287 49.1705 158.895 49.1705Z" fill="#121D33"/></svg>