<svg width="232" height="70" viewBox="0 0 232 70" fill="none" xmlns="http://www.w3.org/2000/svg"><rect width="232" height="70" rx="8" fill="#fff"/><circle cx="40" cy="35" r="15" fill="#fff"/><path d="M39.9999 19C31.1636 19 24 26.1634 24 34.9997C24 43.8364 31.1636 50.9992 39.9999 50.9992C48.8372 50.9992 56 43.8364 56 34.9997C56 26.164 48.8372 19.0008 39.9997 19.0008L39.9999 19V19ZM47.3374 42.0762C47.0508 42.5462 46.4356 42.6952 45.9656 42.4067C42.2089 40.1121 37.4798 39.5924 31.9104 40.8649C31.3738 40.9871 30.8388 40.6509 30.7165 40.114C30.5937 39.5771 30.9286 39.0422 31.4666 38.9199C37.5614 37.5269 42.7894 38.127 47.0068 40.7044C47.4768 40.9929 47.6259 41.6062 47.3374 42.0762V42.0762ZM49.2957 37.7191C48.9346 38.3066 48.1666 38.4919 47.58 38.1308C43.2793 35.4867 36.7234 34.7211 31.6365 36.2653C30.9767 36.4646 30.2799 36.0928 30.0797 35.4342C29.881 34.7745 30.253 34.079 30.9116 33.8784C36.7223 32.1153 43.946 32.9693 48.8849 36.0043C49.4715 36.3654 49.6568 37.1335 49.2957 37.7193V37.7191ZM49.4638 33.1825C44.3072 30.1197 35.7993 29.838 30.8759 31.3323C30.0852 31.5721 29.2492 31.1258 29.0096 30.3352C28.77 29.5442 29.2159 28.7087 30.0071 28.4683C35.6588 26.7526 45.0542 27.0841 50.9912 30.6086C51.7038 31.0306 51.9369 31.9491 51.5147 32.6592C51.0944 33.3704 50.1734 33.6048 49.4646 33.1825H49.4638Z" fill="#1ED760"/><path d="M72.9588 27H78.2301V25.8665H74.2756V18.2727H72.9588V27ZM79.63 27H80.9041V20.4545H79.63V27ZM80.2734 19.4446C80.7124 19.4446 81.0788 19.1037 81.0788 18.6861C81.0788 18.2685 80.7124 17.9233 80.2734 17.9233C79.8303 17.9233 79.468 18.2685 79.468 18.6861C79.468 19.1037 79.8303 19.4446 80.2734 19.4446ZM87.5231 22.0526C87.2589 21.0341 86.462 20.3693 85.0472 20.3693C83.5685 20.3693 82.5202 21.1491 82.5202 22.3082C82.5202 23.2372 83.0827 23.8551 84.31 24.1278L85.418 24.3707C86.0487 24.5114 86.3427 24.7926 86.3427 25.2017C86.3427 25.7088 85.8015 26.1051 84.9663 26.1051C84.2035 26.1051 83.7134 25.777 83.56 25.1335L82.3285 25.321C82.5415 26.4801 83.5046 27.1321 84.9748 27.1321C86.5558 27.1321 87.6509 26.2926 87.6509 25.108C87.6509 24.1832 87.0629 23.6122 85.8612 23.3352L84.8214 23.0966C84.1012 22.9261 83.7901 22.6832 83.7944 22.2401C83.7901 21.7372 84.3356 21.3793 85.06 21.3793C85.8526 21.3793 86.2191 21.8182 86.3683 22.2571L87.5231 22.0526ZM92.1072 20.4545H90.7649V18.8864H89.4908V20.4545H88.532V21.4773H89.4908V25.3423C89.4865 26.5312 90.3942 27.1065 91.3999 27.0852C91.8047 27.081 92.0774 27.0043 92.2266 26.9489L91.9964 25.8963C91.9112 25.9134 91.7536 25.9517 91.549 25.9517C91.1357 25.9517 90.7649 25.8153 90.7649 25.0781V21.4773H92.1072V20.4545ZM96.2674 27.1321C97.695 27.1321 98.7049 26.429 98.9947 25.3636L97.7887 25.1463C97.5586 25.7642 97.0046 26.0795 96.2802 26.0795C95.1893 26.0795 94.4563 25.3722 94.4222 24.1108H99.0756V23.6591C99.0756 21.294 97.6609 20.3693 96.1779 20.3693C94.354 20.3693 93.1523 21.7585 93.1523 23.7699C93.1523 25.8026 94.337 27.1321 96.2674 27.1321ZM94.4265 23.1562C94.4776 22.2273 95.1509 21.4219 96.1864 21.4219C97.1751 21.4219 97.8228 22.1548 97.8271 23.1562H94.4265ZM101.763 23.1136C101.763 22.0696 102.403 21.473 103.289 21.473C104.154 21.473 104.678 22.0398 104.678 22.9901V27H105.952V22.8366C105.952 21.2173 105.062 20.3693 103.724 20.3693C102.739 20.3693 102.096 20.8253 101.793 21.5199H101.712V20.4545H100.489V27H101.763V23.1136ZM113.594 27.1321C115.439 27.1321 116.645 25.7812 116.645 23.7571C116.645 21.7202 115.439 20.3693 113.594 20.3693C111.749 20.3693 110.543 21.7202 110.543 23.7571C110.543 25.7812 111.749 27.1321 113.594 27.1321ZM113.598 26.0625C112.392 26.0625 111.83 25.0099 111.83 23.7528C111.83 22.5 112.392 21.4347 113.598 21.4347C114.796 21.4347 115.358 22.5 115.358 23.7528C115.358 25.0099 114.796 26.0625 113.598 26.0625ZM119.342 23.1136C119.342 22.0696 119.981 21.473 120.867 21.473C121.732 21.473 122.256 22.0398 122.256 22.9901V27H123.531V22.8366C123.531 21.2173 122.64 20.3693 121.302 20.3693C120.317 20.3693 119.674 20.8253 119.371 21.5199H119.29V20.4545H118.067V27H119.342V23.1136Z" fill="#677184"/><path d="M79.4716 40.5625H81.5C81.4602 38.5966 79.7841 37.2045 77.3068 37.2045C74.8636 37.2045 73.0284 38.5795 73.0341 40.6364C73.0341 42.3068 74.2216 43.267 76.1364 43.7614L77.4602 44.1023C78.7159 44.4205 79.5455 44.8125 79.5511 45.7159C79.5455 46.7102 78.6023 47.375 77.2273 47.375C75.9091 47.375 74.8864 46.7841 74.8011 45.5625H72.7273C72.8125 47.875 74.5341 49.1761 77.2443 49.1761C80.0341 49.1761 81.6534 47.7841 81.6591 45.733C81.6534 43.7159 79.9886 42.7955 78.2386 42.3807L77.1477 42.108C76.1932 41.8807 75.1591 41.4773 75.1705 40.5057C75.1761 39.6307 75.9602 38.9886 77.2784 38.9886C78.5341 38.9886 79.3636 39.5739 79.4716 40.5625ZM83.4474 52.2727H85.5043V47.625H85.5895C85.9134 48.2614 86.5895 49.1534 88.0895 49.1534C90.1463 49.1534 91.6861 47.5227 91.6861 44.6477C91.6861 41.7386 90.1009 40.1591 88.0838 40.1591C86.544 40.1591 85.902 41.0852 85.5895 41.7159H85.4702V40.2727H83.4474V52.2727ZM85.4645 44.6364C85.4645 42.9432 86.1918 41.8466 87.5156 41.8466C88.8849 41.8466 89.5895 43.0114 89.5895 44.6364C89.5895 46.2727 88.8736 47.4659 87.5156 47.4659C86.2031 47.4659 85.4645 46.3295 85.4645 44.6364ZM97.2543 49.1705C99.8111 49.1705 101.436 47.3693 101.436 44.6705C101.436 41.9659 99.8111 40.1591 97.2543 40.1591C94.6974 40.1591 93.0724 41.9659 93.0724 44.6705C93.0724 47.3693 94.6974 49.1705 97.2543 49.1705ZM97.2656 47.5227C95.8509 47.5227 95.1577 46.2614 95.1577 44.6648C95.1577 43.0682 95.8509 41.7898 97.2656 41.7898C98.6577 41.7898 99.3509 43.0682 99.3509 44.6648C99.3509 46.2614 98.6577 47.5227 97.2656 47.5227ZM107.54 40.2727H105.818V38.1818H103.761V40.2727H102.523V41.8636H103.761V46.7159C103.75 48.358 104.943 49.1648 106.489 49.1193C107.074 49.1023 107.477 48.9886 107.699 48.9148L107.352 47.3068C107.239 47.3352 107.006 47.3864 106.75 47.3864C106.233 47.3864 105.818 47.2045 105.818 46.375V41.8636H107.54V40.2727ZM109.26 49H111.317V40.2727H109.26V49ZM110.294 39.0341C110.947 39.0341 111.482 38.5341 111.482 37.9205C111.482 37.3011 110.947 36.8011 110.294 36.8011C109.635 36.8011 109.101 37.3011 109.101 37.9205C109.101 38.5341 109.635 39.0341 110.294 39.0341ZM117.852 40.2727H116.04V39.5852C116.04 38.9034 116.324 38.5227 117.091 38.5227C117.415 38.5227 117.688 38.5966 117.858 38.6477L118.273 37.0568C118.006 36.9659 117.42 36.8182 116.71 36.8182C115.193 36.8182 113.983 37.6875 113.983 39.4489V40.2727H112.693V41.8636H113.983V49H116.04V41.8636H117.852V40.2727ZM120.741 52.2727C122.344 52.2727 123.27 51.4489 123.764 50.0568L127.259 40.2727H125.071L123.054 46.8636H122.963L120.952 40.2727H118.77L121.935 49.1818L121.759 49.6534C121.378 50.6477 120.776 50.7159 119.878 50.4545L119.401 52.0568C119.679 52.1705 120.179 52.2727 120.741 52.2727Z" fill="#121D33"/></svg>