<svg width="1440" height="492" viewBox="0 0 1440 492" fill="none" xmlns="http://www.w3.org/2000/svg"><g opacity=".5" clip-path="url(#clip0)"><path d="M540.46 277.814C534.307 280.522 527.45 281.191 520.89 279.724C514.331 278.257 508.411 274.732 503.998 269.662C503.445 269.053 502.735 268.609 501.945 268.379C501.156 268.15 500.318 268.143 499.525 268.36C498.732 268.578 498.015 269.01 497.453 269.611C496.891 270.211 496.506 270.955 496.341 271.761C490.748 298.559 483.841 372.602 562.808 419.05C639.71 369.281 629.689 295.596 622.921 269.062C622.722 268.263 622.305 267.534 621.717 266.957C621.129 266.381 620.392 265.978 619.589 265.795C618.786 265.613 617.947 265.656 617.168 265.921C616.388 266.187 615.697 266.663 615.171 267.298C611.259 272.177 605.982 275.781 600.014 277.65C594.045 279.519 587.655 279.569 581.658 277.792C575.662 276.016 570.33 272.495 566.342 267.676C562.354 262.858 559.891 256.962 559.267 250.739" stroke="#CCD2DE" stroke-width="3" stroke-miterlimit="10" stroke-linecap="round"/><path d="M549.058 325.014V319.848C549.015 316.948 550.125 314.149 552.144 312.066C554.164 309.984 556.928 308.789 559.828 308.743C562.729 308.7 565.527 309.81 567.61 311.83C569.692 313.85 570.887 316.613 570.933 319.514V324.737" stroke="#CCD2DE" stroke-width="3" stroke-miterlimit="10" stroke-linecap="round"/><path d="M560.652 361.418C571.598 361.246 580.332 352.233 580.16 341.287C579.988 330.341 570.975 321.607 560.029 321.778C549.083 321.95 540.348 330.964 540.52 341.91C540.692 352.856 549.705 361.59 560.652 361.418Z" stroke="#CCD2DE" stroke-width="3" stroke-miterlimit="10" stroke-linecap="round"/><path d="M564.246 338.7C564.224 337.941 563.988 337.203 563.565 336.571C563.142 335.94 562.55 335.441 561.856 335.131C561.162 334.822 560.395 334.714 559.642 334.821C558.89 334.928 558.183 335.246 557.604 335.737C557.436 335.855 557.291 336.004 557.177 336.175C556.834 336.622 556.587 337.134 556.451 337.681C556.316 338.227 556.294 338.796 556.389 339.351C556.483 339.907 556.69 340.436 556.999 340.908C557.307 341.379 557.709 341.782 558.18 342.09C558.42 342.232 558.616 342.438 558.746 342.684C558.876 342.93 558.936 343.208 558.918 343.486L558.595 347.003C558.579 347.178 558.6 347.355 558.657 347.522C558.713 347.689 558.804 347.842 558.924 347.971C559.043 348.101 559.189 348.204 559.351 348.273C559.513 348.343 559.687 348.377 559.864 348.375H561.017C561.193 348.373 561.367 348.334 561.528 348.26C561.688 348.186 561.831 348.08 561.948 347.947C562.064 347.814 562.151 347.658 562.203 347.49C562.256 347.321 562.272 347.143 562.251 346.968L561.824 343.509C561.796 343.231 561.846 342.952 561.968 342.701C562.09 342.451 562.28 342.239 562.516 342.09C563.068 341.718 563.516 341.211 563.818 340.618C564.121 340.026 564.268 339.365 564.246 338.7V338.7Z" stroke="#CCD2DE" stroke-width="3" stroke-miterlimit="10" stroke-linecap="round"/><path d="M798.805 10.8516L878.682 90.6715L958.456 10.8516H798.805Z" stroke="#CCD2DE" stroke-width="3" stroke-linecap="round" stroke-linejoin="round"/><path d="M1118.1 170.503L1197.92 90.6831L1118.1 10.8516V170.503Z" stroke="#CCD2DE" stroke-width="3" stroke-linecap="round" stroke-linejoin="round"/><path d="M1197.91 169.929L1277.17 90.6736L1197.91 11.4186V169.929Z" stroke="#CCD2DE" stroke-width="3" stroke-linecap="round" stroke-linejoin="round"/><path d="M958.454 90.6726L1038.27 170.493L1118.09 90.6726H958.454Z" stroke="#CCD2DE" stroke-width="3" stroke-linecap="round" stroke-linejoin="round"/><path d="M1118.09 250.961L1038.27 171.141L958.453 250.961H1118.09Z" stroke="#CCD2DE" stroke-width="3" stroke-linecap="round" stroke-linejoin="round"/><path d="M798.805 490.431C798.805 469.259 790.395 448.955 775.425 433.985C760.454 419.015 740.151 410.605 718.979 410.605C697.808 410.605 677.504 419.015 662.534 433.985C647.564 448.955 639.154 469.259 639.154 490.431H798.805Z" stroke="#CCD2DE" stroke-width="3" stroke-linecap="round" stroke-linejoin="round"/><path d="M1038.27 410.609C1017.1 410.609 996.802 419.019 981.833 433.988C966.864 448.957 958.454 469.26 958.454 490.429H1199.94L1279.76 410.609L1199.94 330.789" stroke="#CCD2DE" stroke-width="3" stroke-linecap="round" stroke-linejoin="round"/><path d="M1439.42 250.646C1439.42 229.475 1431.01 209.171 1416.04 194.201C1401.07 179.231 1380.76 170.82 1359.59 170.82C1338.42 170.82 1318.12 179.231 1303.15 194.201C1288.18 209.171 1279.77 229.475 1279.77 250.646H1439.42Z" stroke="#CCD2DE" stroke-width="3" stroke-linecap="round" stroke-linejoin="round"/><path d="M1118.1 90.6724C1118.1 69.5013 1109.69 49.1973 1094.72 34.2271C1079.75 19.2569 1059.44 10.8467 1038.27 10.8467C1017.1 10.8467 996.798 19.2569 981.828 34.2271C966.857 49.1973 958.447 69.5013 958.447 90.6724H1118.1Z" stroke="#CCD2DE" stroke-width="3" stroke-linecap="round" stroke-linejoin="round"/><path d="M878.683 374.206L922.745 330.144L878.683 286.083L834.576 330.144L878.683 374.206Z" stroke="#CCD2DE" stroke-width="3" stroke-linecap="round" stroke-linejoin="round"/><path d="M878.682 317.482L922.744 273.421L878.682 229.371L834.621 273.432L878.682 317.482Z" stroke="#CCD2DE" stroke-width="3" stroke-linecap="round" stroke-linejoin="round"/><path d="M1359.6 170.503L1439.42 90.6831L1359.6 10.8516L1279.78 90.6715L1359.6 170.503Z" stroke="#CCD2DE" stroke-width="3" stroke-linecap="round" stroke-linejoin="round"/><path d="M160.222 330.144L240.042 250.324L160.222 170.504V330.144Z" stroke="#CCD2DE" stroke-width="3" stroke-linecap="round" stroke-linejoin="round"/><path d="M240.044 330.144L319.865 250.324L240.044 170.504V330.144Z" stroke="#CCD2DE" stroke-width="3" stroke-linecap="round" stroke-linejoin="round"/><path d="M559.332 250.961L639.152 171.141H479.512" stroke="#CCD2DE" stroke-width="3" stroke-linecap="round" stroke-linejoin="round"/><path d="M479.515 330.791C479.515 309.62 471.105 289.316 456.135 274.345C441.164 259.375 420.86 250.965 399.689 250.965C378.518 250.965 358.214 259.375 343.244 274.345C328.274 289.316 319.864 309.62 319.864 330.791H479.515Z" stroke="#CCD2DE" stroke-width="3" stroke-linecap="round" stroke-linejoin="round"/><path d="M319.863 10.8516C319.863 32.0227 328.273 52.3267 343.244 67.2969C358.214 82.2671 378.518 90.6773 399.689 90.6773C420.86 90.6773 441.164 82.2671 456.134 67.2969C471.105 52.3267 479.515 32.0227 479.515 10.8516H319.863Z" stroke="#CCD2DE" stroke-width="3" stroke-linecap="round" stroke-linejoin="round"/><path d="M80.39 250.324L160.21 170.504L80.39 90.6726L0.570068 170.504L80.39 250.324Z" stroke="#CCD2DE" stroke-width="3" stroke-linecap="round" stroke-linejoin="round"/><path d="M399.69 490.429L479.51 410.609L399.69 330.789L319.87 410.609L399.69 490.429Z" stroke="#CCD2DE" stroke-width="3" stroke-linecap="round" stroke-linejoin="round"/><path d="M559.332 170.503L639.152 90.6831L559.332 10.8516L479.512 90.6715L559.332 170.503Z" stroke="#CCD2DE" stroke-width="3" stroke-linecap="round" stroke-linejoin="round"/><path d="M80.39 409.964C124.473 409.964 160.21 374.228 160.21 330.144C160.21 286.061 124.473 250.324 80.39 250.324C36.3067 250.324 0.570068 286.061 0.570068 330.144C0.570068 374.228 36.3067 409.964 80.39 409.964Z" stroke="#CCD2DE" stroke-width="3" stroke-linecap="round" stroke-linejoin="round"/><path d="M718.984 410.612C763.067 410.612 798.804 374.875 798.804 330.792C798.804 286.708 763.067 250.972 718.984 250.972C674.901 250.972 639.164 286.708 639.164 330.792C639.164 374.875 674.901 410.612 718.984 410.612Z" stroke="#CCD2DE" stroke-width="3" stroke-linecap="round" stroke-linejoin="round"/><path d="M718.984 410.612C763.067 410.612 798.804 374.875 798.804 330.792C798.804 286.708 763.067 250.972 718.984 250.972C674.901 250.972 639.164 286.708 639.164 330.792C639.164 374.875 674.901 410.612 718.984 410.612Z" stroke="#CCD2DE" stroke-width="3" stroke-linecap="round" stroke-linejoin="round"/><path d="M718.982 367.658C739.343 367.658 755.848 351.152 755.848 330.792C755.848 310.431 739.343 293.926 718.982 293.926C698.622 293.926 682.117 310.431 682.117 330.792C682.117 351.152 698.622 367.658 718.982 367.658Z" stroke="#CCD2DE" stroke-width="3" stroke-linecap="round" stroke-linejoin="round"/><path d="M798.806 90.6726V330.79" stroke="#CCD2DE" stroke-width="3" stroke-linecap="round" stroke-linejoin="round"/><path d="M639.154 90.6726V330.79" stroke="#CCD2DE" stroke-width="3" stroke-linecap="round" stroke-linejoin="round"/><path d="M343.245 227.582L456.137 114.69M399.691 250.956V91.3164V250.956ZM456.137 227.582L343.245 114.69L456.137 227.582ZM319.871 171.136H479.511H319.871Z" stroke="#CCD2DE" stroke-width="3" stroke-linecap="round" stroke-linejoin="round"/><path d="M981.828 386.59L1094.72 273.699M1038.27 409.976V250.324V409.976ZM1094.72 386.59L981.828 273.699L1094.72 386.59ZM958.454 330.144H1118.09H958.454Z" stroke="#CCD2DE" stroke-width="3" stroke-linecap="round" stroke-linejoin="round"/><path d="M121.775 421.748C121.865 413.378 124.497 405.233 129.321 398.392C134.145 391.551 140.934 386.337 148.788 383.441C156.641 380.545 165.19 380.103 173.3 382.175C181.411 384.247 188.7 388.734 194.203 395.042C199.117 382.112 208.594 371.428 220.844 365.006C233.095 358.584 247.272 356.867 260.701 360.179C274.131 363.492 285.883 371.605 293.742 382.988C301.6 394.371 305.021 408.236 303.359 421.967C311.643 422.895 319.295 426.843 324.851 433.057C330.408 439.271 333.479 447.315 333.479 455.65V455.65C333.479 464.639 329.908 473.259 323.552 479.615C317.197 485.97 308.576 489.541 299.588 489.541H119.365C109.028 489.541 99.1139 485.435 91.8045 478.125C84.4951 470.816 80.3887 460.902 80.3887 450.565V409.975" stroke="#CCD2DE" stroke-width="3" stroke-miterlimit="10"/><path d="M718.93 52.6644C703.634 52.664 688.532 56.0804 674.726 62.6641C660.921 69.2478 648.76 78.8325 639.133 90.7179C648.794 102.58 660.979 112.138 674.8 118.696C688.622 125.254 703.733 128.647 719.031 128.627C734.33 128.607 749.431 125.175 763.236 118.581C777.04 111.987 789.2 102.398 798.83 90.5103C789.172 78.6493 776.985 69.0959 763.162 62.5481C749.338 56.0003 734.226 52.6235 718.93 52.6644V52.6644Z" stroke="#CCD2DE" stroke-width="3" stroke-miterlimit="10"/><path d="M718.858 118.5C733.722 118.5 745.772 106.45 745.772 91.586C745.772 76.7218 733.722 64.6719 718.858 64.6719C703.993 64.6719 691.943 76.7218 691.943 91.586C691.943 106.45 703.993 118.5 718.858 118.5Z" stroke="#CCD2DE" stroke-width="3" stroke-miterlimit="10"/><path d="M1199.25 268.935C1211.32 268.826 1223.26 271.482 1234.14 276.699C1245.02 281.916 1254.57 289.556 1262.04 299.032C1272.59 285.239 1278.31 268.362 1278.32 250.998C1278.33 233.635 1272.64 216.75 1262.11 202.941C1254.82 212.86 1245.31 220.942 1234.35 226.546C1223.38 232.149 1211.26 235.12 1198.95 235.223C1186.64 235.326 1174.48 232.558 1163.42 227.139C1152.36 221.719 1142.72 213.798 1135.27 204.002C1124.98 217.988 1119.58 234.968 1119.89 252.327C1120.2 269.685 1126.2 286.46 1136.98 300.07C1144.3 290.472 1153.71 282.676 1164.51 277.279C1175.3 271.883 1187.19 269.028 1199.25 268.935V268.935Z" stroke="#CCD2DE" stroke-width="3" stroke-miterlimit="10"/><path d="M1158.89 319.19C1171.16 311.68 1185.24 307.648 1199.62 307.528C1214 307.409 1228.15 311.205 1240.54 318.51C1248.85 313.395 1256.16 306.793 1262.09 299.033C1254.61 289.561 1245.06 281.924 1234.18 276.706C1223.3 271.489 1211.37 268.828 1199.3 268.928C1187.23 269.028 1175.35 271.887 1164.55 277.284C1153.76 282.682 1144.34 290.476 1137.02 300.071C1143.08 307.733 1150.49 314.214 1158.89 319.19V319.19Z" stroke="#CCD2DE" stroke-width="3" stroke-miterlimit="10"/><path d="M1158.89 319.188C1171.28 326.493 1185.43 330.289 1199.81 330.169C1214.19 330.05 1228.27 326.018 1240.54 318.508C1228.15 311.202 1214 307.406 1199.62 307.526C1185.24 307.646 1171.16 311.677 1158.89 319.188V319.188Z" stroke="#CCD2DE" stroke-width="3" stroke-miterlimit="10"/><path d="M1198.99 235.242C1211.3 235.144 1223.42 232.175 1234.38 226.57C1245.34 220.964 1254.84 212.878 1262.12 202.954C1256.33 195.37 1249.21 188.89 1241.12 183.823C1228.48 192.045 1213.74 196.48 1198.66 196.607C1183.58 196.734 1168.77 192.546 1155.99 184.538C1147.99 189.739 1140.98 196.336 1135.31 204.015C1142.76 213.817 1152.4 221.744 1163.45 227.165C1174.51 232.587 1186.68 235.352 1198.99 235.242V235.242Z" stroke="#CCD2DE" stroke-width="3" stroke-miterlimit="10"/><path d="M1241.13 183.823C1228.34 175.816 1213.54 171.63 1198.45 171.757C1183.37 171.883 1168.64 176.318 1155.99 184.538C1168.77 192.546 1183.58 196.733 1198.66 196.607C1213.75 196.48 1228.48 192.045 1241.13 183.823V183.823Z" stroke="#CCD2DE" stroke-width="3" stroke-miterlimit="10"/><path d="M1278.33 250.301L1119.91 251.627" stroke="#CCD2DE" stroke-width="3" stroke-miterlimit="10"/><path d="M1213.21 328.897C1225.73 320.043 1235.93 308.29 1242.92 294.641C1249.92 280.992 1253.51 265.852 1253.38 250.515C1253.26 235.178 1249.42 220.099 1242.21 206.565C1234.99 193.031 1224.6 181.446 1211.94 172.797" stroke="#CCD2DE" stroke-width="3" stroke-miterlimit="10"/><path d="M1186.44 329.131C1173.76 320.487 1163.36 308.901 1156.14 295.363C1148.91 281.825 1145.06 266.739 1144.94 251.393C1144.81 236.047 1148.4 220.898 1155.4 207.242C1162.4 193.585 1172.6 181.827 1185.14 172.973" stroke="#CCD2DE" stroke-width="3" stroke-miterlimit="10"/><path d="M1198.46 171.75L1199.77 330.18" stroke="#CCD2DE" stroke-width="3" stroke-miterlimit="10"/><path d="M885.2 91.3164H872.054C834.543 91.3164 804.135 122.082 804.135 160.02C804.135 197.958 834.543 228.724 872.054 228.724H885.2" stroke="#CCD2DE" stroke-width="3" stroke-miterlimit="10" stroke-linecap="round"/><path d="M885.197 228.724C922.708 228.724 953.117 197.964 953.117 160.02C953.117 122.076 922.708 91.3164 885.197 91.3164C847.686 91.3164 817.277 122.076 817.277 160.02C817.277 197.964 847.686 228.724 885.197 228.724Z" stroke="#CCD2DE" stroke-width="3" stroke-miterlimit="10" stroke-linecap="round"/><path d="M922.699 378.07H834.576V490.443H922.699V378.07Z" stroke="#CCD2DE" stroke-width="3" stroke-linecap="round" stroke-linejoin="round"/><path d="M1387.74 331.219H1331.45C1320.86 331.219 1312.28 339.799 1312.28 350.384V471.279C1312.28 481.863 1320.86 490.444 1331.45 490.444H1387.74C1398.33 490.444 1406.91 481.863 1406.91 471.279V350.384C1406.91 339.799 1398.33 331.219 1387.74 331.219Z" stroke="#CCD2DE" stroke-width="3" stroke-miterlimit="10" stroke-linecap="round"/><path d="M1356.38 335.656H1362.82" stroke="#CCD2DE" stroke-width="3" stroke-miterlimit="10" stroke-linecap="round"/><path d="M1313.3 477.411H1405.89" stroke="#CCD2DE" stroke-width="3" stroke-miterlimit="10" stroke-linecap="round"/><path d="M1355.04 484.27H1364.15" stroke="#CCD2DE" stroke-width="3" stroke-miterlimit="10" stroke-linecap="round"/><path d="M1319.18 335.656H1340.97C1341.34 335.656 1341.69 335.801 1341.94 336.058C1342.2 336.316 1342.35 336.665 1342.35 337.028V337.028C1342.35 337.64 1342.59 338.227 1343.02 338.659C1343.45 339.092 1344.04 339.335 1344.65 339.335H1374.63C1375.25 339.335 1375.83 339.092 1376.26 338.659C1376.7 338.227 1376.94 337.64 1376.94 337.028C1376.94 336.665 1377.08 336.316 1377.34 336.058C1377.6 335.801 1377.95 335.656 1378.31 335.656H1399.98" stroke="#CCD2DE" stroke-width="3" stroke-miterlimit="10" stroke-linecap="round"/><path d="M1337.79 441.248V424.966" stroke="#CCD2DE" stroke-width="3" stroke-miterlimit="10" stroke-linecap="round"/><path d="M1346.51 441.252V406.07" stroke="#CCD2DE" stroke-width="3" stroke-miterlimit="10" stroke-linecap="round"/><path d="M1355.24 441.248V394.004" stroke="#CCD2DE" stroke-width="3" stroke-miterlimit="10" stroke-linecap="round"/><path d="M1363.95 441.248V410.828" stroke="#CCD2DE" stroke-width="3" stroke-miterlimit="10" stroke-linecap="round"/><path d="M1372.68 441.248V383.753" stroke="#CCD2DE" stroke-width="3" stroke-miterlimit="10" stroke-linecap="round"/><path d="M1381.4 441.248V394.004" stroke="#CCD2DE" stroke-width="3" stroke-miterlimit="10" stroke-linecap="round"/><path d="M1359.6 330.283V306.068C1359.6 301.315 1361.49 296.757 1364.85 293.396C1368.21 290.036 1372.76 288.148 1377.52 288.148H1389.05C1393.8 288.148 1398.36 286.26 1401.72 282.899C1405.08 279.539 1406.97 274.981 1406.97 270.228V251.075" stroke="#CCD2DE" stroke-width="3" stroke-linecap="round" stroke-linejoin="round"/><path d="M1296.03 425.531C1304.46 425.531 1311.29 418.695 1311.29 410.263C1311.29 401.831 1304.46 394.996 1296.03 394.996C1287.59 394.996 1280.76 401.831 1280.76 410.263C1280.76 418.695 1287.59 425.531 1296.03 425.531Z" stroke="#CCD2DE" stroke-width="3" stroke-linecap="round" stroke-linejoin="round"/><path d="M271.394 31.529C276.381 36.436 280.341 42.2876 283.042 48.7421C285.742 55.1966 287.129 62.1245 287.123 69.1212V70.4588C287.123 73.1165 287.718 75.7405 288.864 78.1387L299.519 100.463C299.8 101.051 299.928 101.701 299.892 102.351C299.856 103.002 299.656 103.633 299.311 104.186C298.966 104.739 298.488 105.196 297.919 105.515C297.351 105.834 296.711 106.004 296.059 106.01H291.551C290.388 106.01 289.274 106.472 288.452 107.293C287.63 108.115 287.169 109.23 287.169 110.392V116.896C287.169 130.906 281.603 144.342 271.697 154.249C261.79 164.155 248.354 169.721 234.344 169.721H212.999C198.989 169.721 185.553 164.155 175.646 154.249C165.739 144.342 160.174 130.906 160.174 116.896V53.3693C160.178 46.7797 161.66 40.2748 164.511 34.3339C167.362 28.393 171.51 23.1675 176.648 19.0424C181.787 14.9172 187.786 11.9976 194.203 10.4985C200.62 8.99938 207.291 8.95906 213.726 10.3805C223.839 12.4359 234.328 11.5762 243.972 7.90125L259.355 1.74351C261.745 0.785421 264.333 0.428039 266.892 0.702691C269.452 0.977342 271.905 1.87564 274.037 3.31886C276.169 4.76208 277.914 6.70616 279.12 8.98071C280.326 11.2553 280.955 13.7909 280.953 16.3653V16.3653C280.95 18.5796 280.511 20.7717 279.66 22.816C278.809 24.8604 277.563 26.7169 275.994 28.2795C274.425 29.8421 272.564 31.08 270.516 31.9225C268.468 32.765 266.274 33.1956 264.06 33.1895H240.651C237.892 33.1888 235.166 33.7918 232.665 34.9563C230.163 36.1209 227.947 37.8186 226.171 39.9305C224.396 42.0424 223.104 44.5173 222.386 47.1815C221.668 49.8457 221.542 52.6347 222.017 55.3527L225.684 76.6857C225.929 78.117 225.61 79.5877 224.792 80.788C223.975 81.9883 222.723 82.8244 221.302 83.1202V83.1202C220.019 83.3991 218.678 83.2137 217.519 82.5972C216.36 81.9806 215.457 80.9728 214.971 79.7531C211.039 69.3749 198.297 68.337 190.755 77.32C185.578 83.4777 187.769 91.0423 190.294 96.0353C191.107 97.6753 191.321 99.5477 190.9 101.329C190.479 103.11 189.449 104.688 187.988 105.791L161.027 126.351" stroke="#CCD2DE" stroke-width="3" stroke-miterlimit="10"/><path d="M278.703 75.707C278.137 76.7628 277.296 77.6454 276.269 78.2608C275.241 78.8761 274.066 79.201 272.868 79.201C271.67 79.201 270.495 78.8761 269.468 78.2608C268.44 77.6454 267.599 76.7628 267.033 75.707" stroke="#CCD2DE" stroke-width="3" stroke-miterlimit="10" stroke-linecap="round"/><path d="M268.188 107.832C268.188 107.832 272.212 121.081 287.387 119.075" stroke="#CCD2DE" stroke-width="3" stroke-miterlimit="10" stroke-linecap="round"/><rect y="317" width="1439" height="173" fill="url(#paint0_linear)"/></g><defs><linearGradient id="paint0_linear" x1="1117" y1="490" x2="1127" y2="338" gradientUnits="userSpaceOnUse"><stop stop-color="#F0F2F7"/><stop offset="1" stop-color="#F0F2F7" stop-opacity="0"/></linearGradient><clipPath id="clip0"><rect width="1440" height="491.005" fill="#fff"/></clipPath></defs></svg>