<svg width="1092" height="545" viewBox="0 0 1092 545" fill="none" xmlns="http://www.w3.org/2000/svg"><g clip-path="url(#clip0)"><rect width="1267.32" height="677" transform="matrix(-1 0 0 1 1267.32 -132)" fill="#121D33"/><g filter="url(#filter0_f)"><ellipse rx="445.834" ry="246.055" transform="matrix(-0.993609 -0.112877 -0.112877 0.993609 978.546 451.416)" fill="#7349F2"/></g><g filter="url(#filter1_f)"><path d="M676.337 588.409C742.435 564.069 785.463 573.195 855.868 571.077C991.773 566.988 1066.92 616.955 1202.37 605.106C1478.74 580.93 728.532 210.045 523.23 396.646C394.171 513.949 261.224 922.765 407.645 828.016C466.12 790.176 474.162 741.119 525.976 694.573C579.449 646.536 608.883 613.247 676.337 588.409Z" fill="url(#paint0_linear)"/></g><g filter="url(#filter2_f)"><path d="M1090.51 440.357C1197.21 447.377 1266.86 486.765 1334.59 578.405C1471.82 764.05 670.064 823.023 781.722 619.071C852.125 490.475 954.214 431.39 1090.51 440.357Z" fill="#0C6CF2"/></g><rect width="1248.25" height="616.321" transform="matrix(-1 0 0 1 1267.32 31.8323)" fill="#121D33" style="mix-blend-mode:lighten"/></g><defs><filter id="filter0_f" x="308.937" y="-23.981" width="1339.22" height="950.794" filterUnits="userSpaceOnUse" color-interpolation-filters="sRGB"><feFlood flood-opacity="0" result="BackgroundImageFix"/><feBlend mode="normal" in="SourceGraphic" in2="BackgroundImageFix" result="shape"/><feGaussianBlur stdDeviation="112.869" result="effect1_foregroundBlur"/></filter><filter id="filter1_f" x="155.46" y="156.234" width="1295.41" height="874.017" filterUnits="userSpaceOnUse" color-interpolation-filters="sRGB"><feFlood flood-opacity="0" result="BackgroundImageFix"/><feBlend mode="normal" in="SourceGraphic" in2="BackgroundImageFix" result="shape"/><feGaussianBlur stdDeviation="94.058" result="effect1_foregroundBlur"/></filter><filter id="filter2_f" x="545.278" y="213.733" width="1030.91" height="759.198" filterUnits="userSpaceOnUse" color-interpolation-filters="sRGB"><feFlood flood-opacity="0" result="BackgroundImageFix"/><feBlend mode="normal" in="SourceGraphic" in2="BackgroundImageFix" result="shape"/><feGaussianBlur stdDeviation="112.869" result="effect1_foregroundBlur"/></filter><linearGradient id="paint0_linear" x1="961.278" y1="581.794" x2="507.896" y2="613.775" gradientUnits="userSpaceOnUse"><stop stop-color="#FF0095"/><stop offset="1" stop-color="#FFCDFF"/></linearGradient><clipPath id="clip0"><rect width="1267.32" height="677" fill="#fff" transform="matrix(-1 0 0 1 1267.32 -132)"/></clipPath></defs></svg>